<svg width="24" height="24" viewBox="0 0 24 24" fill="none" xmlns="http://www.w3.org/2000/svg">
<g id="mdi:dislike">
<path id="Vector" d="M3.44214 2.11719L20.5424 19.2174L19.2263 20.5326L15.742 17.0475L11.9918 20.8052L4.10625 12.9066C3.18936 11.8783 2.68522 10.5472 2.69089 9.16952C2.69656 7.79183 3.21162 6.46493 4.13694 5.44423L2.12695 3.43331L3.44214 2.11719ZM19.6588 5.24611C20.6664 6.25361 21.2505 7.60838 21.2913 9.03271C21.3321 10.457 20.8266 11.843 19.8783 12.9066L18.3575 14.4283L7.58304 3.65468C8.37393 3.55639 9.17671 3.62864 9.93734 3.86657C10.698 4.1045 11.3988 4.50258 11.9927 5.03404C13.0557 4.08314 14.4423 3.57527 15.868 3.61471C17.2936 3.65414 18.6501 4.2379 19.6588 5.24611Z" fill="#ED441A"/>
</g>
</svg>
