<svg width="10" height="11" viewBox="0 0 10 11" fill="none" xmlns="http://www.w3.org/2000/svg">
<g id="Icons">
<path id="Vector" d="M4.86569 7.44141L4.50176 7.78427C4.60107 7.88968 4.7412 7.94685 4.8859 7.941C5.0306 7.93514 5.16566 7.86684 5.25612 7.75375L4.86569 7.44141ZM3.36295 5.11719C3.17359 4.91619 2.85715 4.90676 2.65616 5.09612C2.45517 5.28548 2.44574 5.60192 2.63509 5.80291L3.36295 5.11719ZM8.05612 4.25375C8.22863 4.03812 8.19367 3.72348 7.97804 3.55097C7.76241 3.37847 7.44776 3.41343 7.27526 3.62906L8.05612 4.25375ZM5.22962 7.09854L3.36295 5.11719L2.63509 5.80291L4.50176 7.78427L5.22962 7.09854ZM7.27526 3.62906L4.47526 7.12906L5.25612 7.75375L8.05612 4.25375L7.27526 3.62906Z" fill="#F8F8F8"/>
</g>
</svg>
