<svg width="16" height="16" viewBox="0 0 16 16" fill="none" xmlns="http://www.w3.org/2000/svg">
<circle cx="7.85957" cy="8.36055" r="6.3" fill="#232323"/>
<path d="M7.53268 10.4453L7.16875 10.7882C7.26806 10.8936 7.40819 10.9508 7.55289 10.9449C7.69759 10.9391 7.83265 10.8707 7.92312 10.7577L7.53268 10.4453ZM6.02994 8.12109C5.84059 7.9201 5.52414 7.91067 5.32315 8.10003C5.12216 8.28939 5.11273 8.60583 5.30209 8.80682L6.02994 8.12109ZM10.7231 7.25766C10.8956 7.04203 10.8607 6.72738 10.645 6.55488C10.4294 6.38237 10.1148 6.41733 9.94225 6.63296L10.7231 7.25766ZM7.89661 10.1024L6.02994 8.12109L5.30209 8.80682L7.16875 10.7882L7.89661 10.1024ZM9.94225 6.63296L7.14225 10.133L7.92312 10.7577L10.7231 7.25766L9.94225 6.63296Z" fill="#F8F8F8"/>
</svg>
