<svg width="18" height="18" viewBox="0 0 18 18" fill="none" xmlns="http://www.w3.org/2000/svg">
<g id="Icons">
<path id="Icon" d="M11.7 6.3V4.41C11.7 3.65393 11.7 3.27589 11.5529 2.98711C11.4234 2.73309 11.2169 2.52657 10.9629 2.39714C10.6741 2.25 10.2961 2.25 9.54 2.25H4.41C3.65393 2.25 3.27589 2.25 2.98711 2.39714C2.73309 2.52657 2.52657 2.73309 2.39714 2.98711C2.25 3.27589 2.25 3.65393 2.25 4.41V9.54C2.25 10.2961 2.25 10.6741 2.39714 10.9629C2.52657 11.2169 2.73309 11.4234 2.98711 11.5529C3.27589 11.7 3.65393 11.7 4.41 11.7H6.3M8.46 15.75H13.59C14.3461 15.75 14.7241 15.75 15.0129 15.6029C15.2669 15.4734 15.4734 15.2669 15.6029 15.0129C15.75 14.7241 15.75 14.3461 15.75 13.59V8.46C15.75 7.70393 15.75 7.32589 15.6029 7.03711C15.4734 6.78309 15.2669 6.57657 15.0129 6.44714C14.7241 6.3 14.3461 6.3 13.59 6.3H8.46C7.70393 6.3 7.32589 6.3 7.03711 6.44714C6.78309 6.57657 6.57657 6.78309 6.44714 7.03711C6.3 7.32589 6.3 7.70393 6.3 8.46V13.59C6.3 14.3461 6.3 14.7241 6.44714 15.0129C6.57657 15.2669 6.78309 15.4734 7.03711 15.6029C7.32589 15.75 7.70393 15.75 8.46 15.75Z" stroke="#B4B4B4" stroke-width="1.3" stroke-linecap="round" stroke-linejoin="round"/>
</g>
</svg>
