<svg width="18" height="18" viewBox="0 0 18 18" fill="none" xmlns="http://www.w3.org/2000/svg">
<g id="Icons">
<path id="Icon" d="M7.3125 5.9625H10.1812C11.02 5.9625 11.7 6.64247 11.7 7.48125C11.7 8.32003 11.02 9 10.1812 9H7.3125H10.5187C11.3575 9 12.0375 9.67997 12.0375 10.5187C12.0375 11.3575 11.3575 12.0375 10.5187 12.0375H7.3125M7.3125 5.9625H6.3M7.3125 5.9625V12.0375M7.3125 12.0375H6.3M7.65 4.95V5.9625M7.65 12.0375V13.05M9.675 4.95V5.9625M9.675 12.0375V13.05M15.75 9C15.75 12.7279 12.7279 15.75 9 15.75C5.27208 15.75 2.25 12.7279 2.25 9C2.25 5.27208 5.27208 2.25 9 2.25C12.7279 2.25 15.75 5.27208 15.75 9Z" stroke="#B4B4B4" stroke-width="1.2" stroke-linecap="round" stroke-linejoin="round"/>
</g>
</svg>
