<svg width="18" height="18" viewBox="0 0 18 18" fill="none" xmlns="http://www.w3.org/2000/svg">
<g id="Icons">
<path id="Icon" d="M6.6375 10.8C6.6375 11.6698 7.34265 12.375 8.2125 12.375H9.675C10.607 12.375 11.3625 11.6195 11.3625 10.6875C11.3625 9.75552 10.607 9 9.675 9H8.325C7.39302 9 6.6375 8.24448 6.6375 7.3125C6.6375 6.38052 7.39302 5.625 8.325 5.625H9.7875C10.6573 5.625 11.3625 6.33015 11.3625 7.2M9 4.6125V5.625M9 12.375V13.3875M15.75 9C15.75 12.7279 12.7279 15.75 9 15.75C5.27208 15.75 2.25 12.7279 2.25 9C2.25 5.27208 5.27208 2.25 9 2.25C12.7279 2.25 15.75 5.27208 15.75 9Z" stroke="#B4B4B4" stroke-width="1.053" stroke-linecap="round" stroke-linejoin="round"/>
</g>
</svg>
