<svg width="24" height="24" viewBox="0 0 24 24" fill="none" xmlns="http://www.w3.org/2000/svg">
<g id="icon_filled/Eye">
<path id="Exclude" fill-rule="evenodd" clip-rule="evenodd" d="M11.9992 5C9.88927 5 7.99334 5.92747 6.4903 7.00884C4.97937 8.0959 3.77915 9.40024 3.03928 10.2985C2.21868 11.2948 2.21868 12.7052 3.03928 13.7015C3.77915 14.5998 4.97936 15.9041 6.4903 16.9912C7.99334 18.0725 9.88927 19 11.9992 19C14.1091 19 16.0051 18.0725 17.5081 16.9912C19.019 15.9041 20.2192 14.5998 20.9591 13.7015C21.7797 12.7052 21.7797 11.2948 20.9591 10.2985C20.2192 9.40025 19.019 8.0959 17.5081 7.00885C16.0051 5.92747 14.1091 5 11.9992 5ZM11.999 10C10.8945 10 9.99902 10.8954 9.99902 12C9.99902 13.1046 10.8945 14 11.999 14C13.1036 14 13.999 13.1046 13.999 12C13.999 10.8954 13.1036 10 11.999 10ZM7.99902 12C7.99902 9.79086 9.78988 8 11.999 8C14.2082 8 15.999 9.79086 15.999 12C15.999 14.2091 14.2082 16 11.999 16C9.78988 16 7.99902 14.2091 7.99902 12Z" fill="#535353"/>
</g>
</svg>
