<svg width="24" height="24" viewBox="0 0 24 24" fill="none" xmlns="http://www.w3.org/2000/svg">
<g id="Icons">
<path id="Vector" d="M16.2413 4.07031C14.4152 4.07031 12.8549 5.3719 11.9976 6.26925C11.1403 5.3719 9.58348 4.07031 7.75829 4.07031C4.61234 4.07031 2.41602 6.26315 2.41602 9.40213C2.41602 12.8608 5.14378 15.0964 7.78268 17.2587C9.02851 18.2807 10.3179 19.3366 11.3067 20.5075C11.4731 20.7035 11.7171 20.8168 11.9732 20.8168H12.0237C12.2807 20.8168 12.5238 20.7026 12.6893 20.5075C13.6799 19.3366 14.9684 18.2798 16.2151 17.2587C18.8532 15.0972 21.5827 12.8617 21.5827 9.40213C21.5827 6.26315 19.3864 4.07031 16.2413 4.07031Z" fill="#1AED87"/>
</g>
</svg>
