<svg width="16" height="4" viewBox="0 0 16 4" fill="none" xmlns="http://www.w3.org/2000/svg">
<g id="Group 340">
<path id="Vector" d="M13.8333 2.83317C14.2936 2.83317 14.6667 2.46007 14.6667 1.99984C14.6667 1.5396 14.2936 1.1665 13.8333 1.1665C13.3731 1.1665 13 1.5396 13 1.99984C13 2.46007 13.3731 2.83317 13.8333 2.83317Z" stroke="#F8F8F8" stroke-width="1.8" stroke-linecap="round" stroke-linejoin="round"/>
<path id="Vector_2" d="M7.99935 2.83317C8.45959 2.83317 8.83268 2.46007 8.83268 1.99984C8.83268 1.5396 8.45959 1.1665 7.99935 1.1665C7.53911 1.1665 7.16602 1.5396 7.16602 1.99984C7.16602 2.46007 7.53911 2.83317 7.99935 2.83317Z" stroke="#F8F8F8" stroke-width="1.8" stroke-linecap="round" stroke-linejoin="round"/>
<path id="Vector_3" d="M2.16634 2.83317C2.62658 2.83317 2.99967 2.46007 2.99967 1.99984C2.99967 1.5396 2.62658 1.1665 2.16634 1.1665C1.7061 1.1665 1.33301 1.5396 1.33301 1.99984C1.33301 2.46007 1.7061 2.83317 2.16634 2.83317Z" stroke="#F8F8F8" stroke-width="1.8" stroke-linecap="round" stroke-linejoin="round"/>
</g>
</svg>
