<svg width="18" height="18" viewBox="0 0 18 18" fill="none" xmlns="http://www.w3.org/2000/svg">
<g id="Bold / Essentional, UI / Magic Stick 3">
<g id="Vector">
<path d="M3.22507 3.18365C2.42498 3.98373 2.42498 5.28093 3.22507 6.08102L4.35321 7.20916C4.36168 7.19936 4.37056 7.1898 4.37986 7.1805L7.222 4.33837C7.23128 4.32909 7.24081 4.32023 7.25057 4.31178L6.12244 3.18365C5.32235 2.38356 4.02515 2.38356 3.22507 3.18365Z" fill="#929292"/>
<path d="M8.00222 5.06343C7.99377 5.07319 7.98491 5.08273 7.97564 5.092L5.1335 7.93414C5.1242 7.94344 5.11464 7.95232 5.10484 7.96079L11.9172 14.7731C12.7173 15.5732 14.0145 15.5732 14.8145 14.7731C15.6146 13.973 15.6146 12.6758 14.8145 11.8758L8.00222 5.06343Z" fill="#929292"/>
<path d="M11.933 2.09132C12.0474 1.80029 12.4577 1.80029 12.5721 2.09131L12.8779 2.86955C12.9128 2.9584 12.9829 3.02874 13.0714 3.06378L13.8468 3.37071C14.1367 3.48549 14.1367 3.89736 13.8468 4.01214L13.0714 4.31907C12.9829 4.35411 12.9128 4.42445 12.8779 4.5133L12.5721 5.29154C12.4577 5.58256 12.0474 5.58256 11.933 5.29154L11.6272 4.5133C11.5923 4.42445 11.5222 4.35411 11.4337 4.31907L10.6583 4.01214C10.3684 3.89736 10.3684 3.48549 10.6583 3.37071L11.4337 3.06378C11.5222 3.02874 11.5923 2.9584 11.6272 2.86955L11.933 2.09132Z" fill="#929292"/>
<path d="M14.6808 6.93877C14.7951 6.64774 15.2055 6.64774 15.3198 6.93877L15.4313 7.22252C15.4662 7.31137 15.5363 7.3817 15.6248 7.41674L15.9075 7.52865C16.1975 7.64343 16.1975 8.0553 15.9075 8.17008L15.6248 8.28199C15.5363 8.31703 15.4662 8.38736 15.4313 8.47622L15.3198 8.75997C15.2055 9.05099 14.7951 9.05099 14.6808 8.75997L14.5693 8.47622C14.5343 8.38736 14.4643 8.31703 14.3758 8.28199L14.093 8.17008C13.8031 8.0553 13.8031 7.64343 14.093 7.52865L14.3758 7.41674C14.4643 7.3817 14.5343 7.31137 14.5693 7.22252L14.6808 6.93877Z" fill="#929292"/>
<path d="M4.14071 11.3283C4.25506 11.0372 4.66542 11.0372 4.77977 11.3283L4.89127 11.612C4.92618 11.7009 4.99626 11.7712 5.08478 11.8062L5.36749 11.9181C5.65744 12.0329 5.65744 12.4448 5.36749 12.5596L5.08478 12.6715C4.99626 12.7065 4.92618 12.7769 4.89127 12.8657L4.77977 13.1495C4.66542 13.4405 4.25506 13.4405 4.14071 13.1495L4.02921 12.8657C3.9943 12.7769 3.92423 12.7065 3.8357 12.6715L3.553 12.5596C3.26305 12.4448 3.26305 12.0329 3.553 11.9181L3.8357 11.8062C3.92423 11.7712 3.9943 11.7009 4.02921 11.612L4.14071 11.3283Z" fill="#929292"/>
</g>
</g>
</svg>
