<svg width="20" height="20" viewBox="0 0 20 20" fill="none" xmlns="http://www.w3.org/2000/svg">
<g id="bytesize:portfolio" clip-path="url(#clip0_3365_760)">
<g id="Vector">
<path d="M18.5126 9.86079V17.4997H1.48875V9.86079M0.833984 3.61079H19.1673V9.16634C19.1673 9.16634 15.2387 11.9441 10.0007 11.9441C4.76256 11.9441 0.833984 9.16634 0.833984 9.16634V3.61079ZM10.0007 13.333V10.5552ZM12.6197 3.61079C12.6197 3.61079 12.6197 0.833008 10.0007 0.833008C7.3816 0.833008 7.3816 3.61079 7.3816 3.61079" fill="#F8F8F8"/>
<path d="M18.5126 9.86079V17.4997H1.48875V9.86079M10.0007 13.333V10.5552M12.6197 3.61079C12.6197 3.61079 12.6197 0.833008 10.0007 0.833008C7.3816 0.833008 7.3816 3.61079 7.3816 3.61079M0.833984 3.61079H19.1673V9.16634C19.1673 9.16634 15.2387 11.9441 10.0007 11.9441C4.76256 11.9441 0.833984 9.16634 0.833984 9.16634V3.61079Z" stroke="#0F0F0F" stroke-width="1.71429" stroke-linecap="round" stroke-linejoin="round"/>
</g>
</g>
<defs>
<clipPath id="clip0_3365_760">
<rect width="20" height="20" fill="white"/>
</clipPath>
</defs>
</svg>
