<svg width="16" height="16" viewBox="0 0 16 16" fill="none" xmlns="http://www.w3.org/2000/svg">
<g id="Group 336">
<path id="Vector" d="M11.2662 6.44937C11.2663 6.19717 11.2165 5.94744 11.1196 5.71457C11.0228 5.4817 10.8808 5.2703 10.7019 5.09254C10.3358 4.74321 9.84921 4.5483 9.34318 4.5483C8.83716 4.5483 8.35057 4.74321 7.98447 5.09254L0.544484 12.5344C0.204912 12.8985 0.0199612 13.3802 0.0286106 13.8781C0.0372599 14.3759 0.238834 14.8509 0.59085 15.203C0.942866 15.5551 1.41783 15.7567 1.91563 15.7655C2.41344 15.7743 2.8952 15.5894 3.2594 15.2499L10.7019 7.80808C10.8811 7.63014 11.0232 7.41844 11.1201 7.18522C11.2169 6.95201 11.2666 6.7019 11.2662 6.44937ZM2.37282 14.3646C2.24607 14.4854 2.07768 14.5528 1.90257 14.5528C1.72746 14.5528 1.55907 14.4854 1.43232 14.3646C1.3078 14.2398 1.23788 14.0707 1.23788 13.8944C1.23788 13.7181 1.3078 13.5489 1.43232 13.4241L6.30348 8.55233L7.24712 9.49597L2.37282 14.3646ZM9.81657 6.92087L8.13119 8.60688L7.19069 7.66324L8.8767 5.97786C8.9368 5.9092 9.01036 5.85362 9.09282 5.81455C9.17528 5.77548 9.26489 5.75375 9.35609 5.75073C9.44729 5.7477 9.53814 5.76343 9.62301 5.79695C9.70788 5.83046 9.78496 5.88105 9.84949 5.94557C9.91401 6.0101 9.9646 6.08718 9.99811 6.17205C10.0316 6.25693 10.0474 6.34777 10.0443 6.43897C10.0413 6.53017 10.0196 6.61978 9.98051 6.70224C9.94144 6.7847 9.88586 6.85826 9.8172 6.91837L9.81657 6.92087ZM3.02929 2.55632L4.00114 2.27919L4.27827 1.30734C4.32292 1.15139 4.41713 1.01423 4.54665 0.916578C4.67618 0.81893 4.83398 0.766113 4.99619 0.766113C5.1584 0.766113 5.3162 0.81893 5.44572 0.916578C5.57525 1.01423 5.66946 1.15139 5.7141 1.30734L5.99124 2.27919L6.96309 2.55632C7.11903 2.60097 7.2562 2.69518 7.35385 2.8247C7.4515 2.95423 7.50431 3.11203 7.50431 3.27424C7.50431 3.43645 7.4515 3.59425 7.35385 3.72377C7.2562 3.8533 7.11903 3.94751 6.96309 3.99215L5.99124 4.26929L5.7141 5.24114C5.66946 5.39708 5.57525 5.53425 5.44572 5.6319C5.3162 5.72955 5.1584 5.78236 4.99619 5.78236C4.83398 5.78236 4.67618 5.72955 4.54665 5.6319C4.41713 5.53425 4.32292 5.39708 4.27827 5.24114L4.00114 4.26929L3.02929 3.99215C2.87334 3.94751 2.73618 3.8533 2.63853 3.72377C2.54088 3.59425 2.48806 3.43645 2.48806 3.27424C2.48806 3.11203 2.54088 2.95423 2.63853 2.8247C2.73618 2.69518 2.87334 2.60097 3.02929 2.55632ZM14.4871 11.5162L13.5152 11.7933L13.2381 12.7651C13.1935 12.9211 13.0993 13.0583 12.9697 13.1559C12.8402 13.2536 12.6824 13.3064 12.5202 13.3064C12.358 13.3064 12.2002 13.2536 12.0707 13.1559C11.9411 13.0583 11.8469 12.9211 11.8023 12.7651L11.5251 11.7933L10.5533 11.5162C10.3974 11.4715 10.2602 11.3773 10.1625 11.2478C10.0649 11.1183 10.0121 10.9605 10.0121 10.7982C10.0121 10.636 10.0649 10.4782 10.1625 10.3487C10.2602 10.2192 10.3974 10.125 10.5533 10.0803L11.5251 9.80319L11.8023 8.83134C11.8469 8.6754 11.9411 8.53823 12.0707 8.44059C12.2002 8.34294 12.358 8.29012 12.5202 8.29012C12.6824 8.29012 12.8402 8.34294 12.9697 8.44059C13.0993 8.53823 13.1935 8.6754 13.2381 8.83134L13.5152 9.80319L14.4871 10.0803C14.643 10.125 14.7802 10.2192 14.8779 10.3487C14.9755 10.4782 15.0283 10.636 15.0283 10.7982C15.0283 10.9605 14.9755 11.1183 14.8779 11.2478C14.7802 11.3773 14.643 11.4715 14.4871 11.5162ZM11.1126 2.33374L11.9628 2.09109L12.2067 1.23962C12.2464 1.10407 12.3289 0.985041 12.442 0.900359C12.555 0.815677 12.6925 0.769907 12.8337 0.769907C12.9749 0.769907 13.1124 0.815677 13.2254 0.900359C13.3385 0.985041 13.421 1.10407 13.4607 1.23962L13.7033 2.08983L14.5536 2.33248C14.6891 2.37218 14.8081 2.45473 14.8928 2.56777C14.9775 2.68081 15.0233 2.81824 15.0233 2.95948C15.0233 3.10072 14.9775 3.23816 14.8928 3.3512C14.8081 3.46424 14.6891 3.54679 14.5536 3.58648L13.7033 3.82913L13.4607 4.68123C13.421 4.81677 13.3385 4.93581 13.2254 5.02049C13.1124 5.10517 12.9749 5.15094 12.8337 5.15094C12.6925 5.15094 12.555 5.10517 12.442 5.02049C12.3289 4.93581 12.2464 4.81677 12.2067 4.68123L11.964 3.83164L11.1126 3.58774C10.977 3.54804 10.858 3.46549 10.7733 3.35245C10.6886 3.23941 10.6429 3.10198 10.6429 2.96074C10.6429 2.8195 10.6886 2.68206 10.7733 2.56902C10.858 2.45598 10.977 2.37343 11.1126 2.33374Z" fill="#B1F625"/>
</g>
</svg>
