<svg width="24" height="24" viewBox="0 0 24 24" fill="none" xmlns="http://www.w3.org/2000/svg">
<g id="Icons">
<path id="Vector" d="M4.39971 11.3579H4.61686V17.5538H3.39212C2.91244 17.5538 2.52352 17.9428 2.52352 18.4224C2.52352 18.9021 2.91244 19.291 3.39212 19.291H20.6079C21.0876 19.291 21.4765 18.9021 21.4765 18.4224C21.4765 17.9428 21.0876 17.5538 20.6079 17.5538H19.3831V11.3579H19.6003C20.8652 11.3579 21.2997 10.8282 21.4415 10.3839C21.5833 9.93965 21.536 9.25627 20.5047 8.5236L14.2734 4.09697C13.6566 3.65898 12.8495 3.41772 12 3.41772C11.1505 3.41772 10.3434 3.65898 9.72664 4.09697L3.49527 8.5236C2.46402 9.25627 2.41668 9.93965 2.55848 10.3839C2.70028 10.8282 3.1348 11.3579 4.39971 11.3579ZM6.35407 11.3579H7.87413V17.5538H6.35407V11.3579ZM14.3887 11.3579V17.5538H12.8686V11.3579H14.3887ZM11.1314 17.5538H9.61134V11.3579H11.1314V17.5538ZM17.6459 17.5538H16.1259V11.3579H17.6459V17.5538ZM10.7327 5.51323C11.0532 5.28566 11.5151 5.15493 12 5.15493C12.4849 5.15493 12.9468 5.28566 13.2673 5.51323L19.0494 9.62087H4.95062L10.7327 5.51323Z" fill="#F8F8F8"/>
</g>
</svg>
