<?xml version="1.0" encoding="UTF-8" standalone="no"?>
<svg
   width="14"
   height="18.527849"
   viewBox="0 0 14 18.527849"
   fill="none"
 
   xmlns="http://www.w3.org/2000/svg"
/>
 
  <g
    >
    <path
       id="Union"
       d="m 9.14377,15.6858 -0.9242,0.3819 z M 8.91839,15.2337 8.12816,15.8465 Z m 6.16321,0 0.7902,0.6128 z M 17,10 c 0,1.6366 -0.7853,3.0895 -2.0038,4.0033 l 1.1999,1.6001 C 17.8966,14.3282 19,12.2928 19,10 Z M 12,5 c 2.7614,0 5,2.23858 5,5 h 2 C 19,6.13401 15.866,3 12,3 Z M 7,10 C 7,7.23858 9.23858,5 12,5 V 3 C 8.13401,3 5,6.13401 5,10 Z m 2.0038,4.0033 C 7.78526,13.0895 7,11.6366 7,10 H 5 c 0,2.2928 1.1034,4.3282 2.80393,5.6034 z m 1.9935,5.7397 C 10.9654,18.2148 10.6489,16.7097 10.068,15.3039 l -1.84843,0.7638 c 0.48641,1.1772 0.75144,2.4374 0.77818,3.7171 z m 2.3443,-0.5319 c -0.8445,0.4223 -1.8387,0.4223 -2.6832,0 L 9.76393,21 c 1.40767,0.7038 3.06447,0.7038 4.47217,0 z m 0.5904,-3.9072 c -0.5809,1.4058 -0.8974,2.9109 -0.9293,4.4391 l 1.9995,0.0418 c 0.0268,-1.2797 0.2918,-2.5399 0.7782,-3.7171 z M 14.2361,21 c 0.4719,-0.236 0.7556,-0.7112 0.7661,-1.2152 L 13.0027,19.743 c 0.0045,-0.2146 0.1258,-0.4253 0.3389,-0.5319 z M 8.99775,19.7848 C 9.00828,20.2888 9.29199,20.764 9.76393,21 l 0.89447,-1.7889 c 0.2131,0.1066 0.3344,0.3173 0.3389,0.5319 z M 7.80393,15.6034 c 0.1509,0.1131 0.23905,0.1795 0.30132,0.2304 0.06258,0.0512 0.05073,0.0486 0.02291,0.0127 L 9.70862,14.6209 C 9.52146,14.3795 9.23067,14.1734 9.0038,14.0033 Z M 10.068,15.3039 C 9.98964,15.1144 9.89131,14.8565 9.70862,14.6209 l -1.58046,1.2256 c -0.01351,-0.0174 -0.01601,-0.0268 -0.00295,4e-4 0.00785,0.0163 0.0187,0.0403 0.03499,0.0784 0.01645,0.0386 0.03494,0.0833 0.05937,0.1424 z m 4.9282,-1.3006 c -0.2269,0.1701 -0.5177,0.3762 -0.7048,0.6176 l 1.5804,1.2256 c -0.0278,0.0359 -0.0396,0.0385 0.023,-0.0127 0.0622,-0.0509 0.1504,-0.1173 0.3013,-0.2304 z m 0.7842,2.0644 c 0.0245,-0.0591 0.0429,-0.1038 0.0594,-0.1424 0.0163,-0.0381 0.0271,-0.0621 0.035,-0.0784 0.0131,-0.0272 0.0105,-0.0178 -0.003,-4e-4 l -1.5804,-1.2256 c -0.1827,0.2356 -0.281,0.4935 -0.3594,0.683 z"
       fill="#f8f8f8" />
    <path
       id="Ellipse 75"
       d="m 14.9923,16 v 0 c -1.8111,1.2106 -4.1732,1.2106 -5.98424,0 v 0"
       stroke="#f8f8f8"
       stroke-width="2" />
  </g>
</svg>
