<svg width="20" height="21" viewBox="0 0 20 21" fill="none" xmlns="http://www.w3.org/2000/svg">
<g id="Setting_line_duotone_line">
<path id="Subtract" fill-rule="evenodd" clip-rule="evenodd" d="M11.719 3.23278C11.7465 3.32463 11.7575 3.43444 11.7795 3.65406C11.821 4.06902 11.8417 4.27649 11.894 4.40749C12.1026 4.92968 12.7005 5.17734 13.2172 4.95555C13.3468 4.89991 13.5082 4.76788 13.8309 4.50381L13.8309 4.5038C14.0017 4.36404 14.0871 4.29416 14.1715 4.24866C14.4991 4.072 14.8977 4.09188 15.2061 4.30025C15.2855 4.35393 15.3635 4.43196 15.5196 4.58803L16.2641 5.33259C16.4202 5.48866 16.4983 5.5667 16.5519 5.64614C16.7603 5.95451 16.7802 6.35308 16.6035 6.68065C16.558 6.76504 16.4881 6.85045 16.3484 7.02128L16.3484 7.0213C16.0843 7.34406 15.9522 7.50544 15.8966 7.63506C15.6748 8.15175 15.9225 8.74965 16.4447 8.95818C16.5757 9.0105 16.7832 9.03125 17.1981 9.07274C17.4178 9.09471 17.5276 9.10569 17.6195 9.13319C17.976 9.23991 18.2437 9.53579 18.3145 9.90117C18.3327 9.9953 18.3327 10.1057 18.3327 10.3264V11.3794C18.3327 11.6001 18.3327 11.7104 18.3145 11.8045C18.2438 12.1699 17.976 12.4659 17.6194 12.5726C17.5276 12.6 17.4178 12.611 17.1982 12.633C16.7834 12.6745 16.5761 12.6952 16.4451 12.7475C15.9228 12.9559 15.6751 13.554 15.897 14.0708C15.9526 14.2003 16.0846 14.3616 16.3485 14.6842L16.3485 14.6842L16.3485 14.6842C16.4882 14.8549 16.558 14.9403 16.6035 15.0246C16.7802 15.3522 16.7604 15.7509 16.5519 16.0593C16.4983 16.1387 16.4203 16.2167 16.2643 16.3727L15.5196 17.1173C15.3636 17.2734 15.2855 17.3514 15.2061 17.4051C14.8977 17.6135 14.4991 17.6334 14.1716 17.4567C14.0872 17.4112 14.0018 17.3413 13.831 17.2016L13.8309 17.2016L13.8309 17.2015C13.5082 16.9375 13.3468 16.8054 13.2172 16.7498C12.7005 16.528 12.1026 16.7757 11.8941 17.2979C11.8418 17.4289 11.821 17.6364 11.7795 18.0515C11.7575 18.2713 11.7465 18.3812 11.719 18.473C11.6123 18.8295 11.3164 19.0972 10.9511 19.168C10.857 19.1862 10.7465 19.1862 10.5257 19.1862H9.47288C9.25215 19.1862 9.14179 19.1862 9.04766 19.168C8.68228 19.0973 8.38639 18.8295 8.27967 18.473C8.25218 18.3811 8.24119 18.2713 8.21923 18.0517L8.21923 18.0517L8.21923 18.0516C8.17773 17.6367 8.15698 17.4292 8.10466 17.2982C7.89613 16.776 7.29824 16.5284 6.78156 16.7501C6.65193 16.8058 6.49054 16.9378 6.16776 17.2019L6.16775 17.2019C5.9969 17.3417 5.91148 17.4116 5.82709 17.4571C5.49952 17.6337 5.10096 17.6139 4.7926 17.4055C4.71315 17.3518 4.63511 17.2738 4.47902 17.1177L3.73449 16.3732C3.57841 16.2171 3.50037 16.139 3.44669 16.0596C3.23833 15.7512 3.21846 15.3527 3.3951 15.0251C3.4406 14.9407 3.51049 14.8553 3.65026 14.6845L3.65027 14.6844C3.91435 14.3617 4.0464 14.2003 4.10204 14.0707C4.32382 13.554 4.07616 12.9561 3.55398 12.7475C3.42298 12.6952 3.2155 12.6745 2.80054 12.633C2.58092 12.611 2.47111 12.6 2.37926 12.5725C2.02272 12.4658 1.75495 12.1699 1.68423 11.8045C1.66602 11.7104 1.66602 11.6001 1.66602 11.3793L1.66602 10.3265C1.66602 10.1057 1.66602 9.99527 1.68425 9.9011C1.75498 9.53577 2.02271 9.23994 2.37918 9.1332C2.47107 9.10569 2.58093 9.09471 2.80064 9.07273L2.80065 9.07273C3.21579 9.03122 3.42335 9.01046 3.55441 8.95811C4.07647 8.74955 4.32408 8.15177 4.1024 7.63514C4.04675 7.50546 3.91464 7.34399 3.65041 7.02105C3.51054 6.85009 3.44061 6.76462 3.39508 6.68017C3.21852 6.35265 3.23839 5.95418 3.44667 5.64586C3.50037 5.56636 3.57846 5.48828 3.73463 5.33211L3.73463 5.33211L4.47906 4.58767C4.63515 4.43159 4.71319 4.35355 4.79264 4.29986C5.101 4.09151 5.49956 4.07163 5.82713 4.24827C5.91152 4.29378 5.99696 4.36369 6.16785 4.5035C6.49055 4.76753 6.65191 4.89955 6.78147 4.95518C7.29822 5.17707 7.89625 4.92935 8.10475 4.40706C8.15703 4.27611 8.17777 4.06872 8.21924 3.65395C8.24119 3.43443 8.25217 3.32467 8.27964 3.23286C8.38635 2.87625 8.6823 2.60843 9.04775 2.53773C9.14184 2.51953 9.25215 2.51953 9.47276 2.51953H10.5258C10.7465 2.51953 10.8569 2.51953 10.951 2.53775C11.3164 2.60846 11.6123 2.87624 11.719 3.23278ZM9.99935 14.1862C11.8403 14.1862 13.3327 12.6938 13.3327 10.8529C13.3327 9.01192 11.8403 7.51953 9.99935 7.51953C8.1584 7.51953 6.66602 9.01192 6.66602 10.8529C6.66602 12.6938 8.1584 14.1862 9.99935 14.1862Z" fill="#535353"/>
<path id="Subtract_2" d="M11.7795 3.65406L11.1824 3.71377L11.1824 3.71377L11.7795 3.65406ZM11.719 3.23278L12.2938 3.06073L12.2938 3.06073L11.719 3.23278ZM11.894 4.40749L11.3368 4.63001L11.3368 4.63001L11.894 4.40749ZM13.2172 4.95555L12.9805 4.4042L12.9805 4.4042L13.2172 4.95555ZM13.8309 4.50381L14.2109 4.96829L14.2206 4.96003L13.8309 4.50381ZM13.8309 4.5038L13.4509 4.03932L13.4412 4.04758L13.8309 4.5038ZM14.1715 4.24866L13.8867 3.72055L13.8867 3.72055L14.1715 4.24866ZM15.2061 4.30025L14.8701 4.7974L14.8701 4.7974L15.2061 4.30025ZM15.5196 4.58803L15.9439 4.16377L15.9439 4.16377L15.5196 4.58803ZM16.2641 5.33259L15.8399 5.75685L15.8399 5.75685L16.2641 5.33259ZM16.5519 5.64614L16.0548 5.98206L16.0548 5.98206L16.5519 5.64614ZM16.6035 6.68065L17.1316 6.96544L17.1316 6.96544L16.6035 6.68065ZM16.3484 7.02128L16.7968 7.4199L16.805 7.41073L16.8127 7.40123L16.3484 7.02128ZM16.3484 7.0213L15.8999 6.62268L15.8918 6.63185L15.884 6.64135L16.3484 7.0213ZM15.8966 7.63506L16.448 7.87172L16.448 7.87172L15.8966 7.63506ZM16.4447 8.95818L16.6672 8.40097L16.6672 8.40097L16.4447 8.95818ZM17.1981 9.07274L17.1384 9.66977L17.1384 9.66977L17.1981 9.07274ZM17.6195 9.13319L17.4474 9.70799L17.4474 9.70799L17.6195 9.13319ZM18.3145 9.90117L18.9035 9.78716L18.9035 9.78716L18.3145 9.90117ZM18.3145 11.8045L17.7254 11.6905L17.7254 11.6905L18.3145 11.8045ZM17.6194 12.5726L17.4474 11.9978L17.4474 11.9978L17.6194 12.5726ZM17.1982 12.633L17.1385 12.036L17.1385 12.036L17.1982 12.633ZM16.4451 12.7475L16.2227 12.1902L16.2227 12.1902L16.4451 12.7475ZM15.897 14.0708L16.4483 13.834L16.4483 13.834L15.897 14.0708ZM16.3485 14.6842L15.8841 15.0641L15.9031 15.0873L15.9242 15.1084L16.3485 14.6842ZM16.3485 14.6842L16.8129 14.3043L16.7939 14.2811L16.7728 14.2599L16.3485 14.6842ZM16.6035 15.0246L16.0754 15.3095L16.0754 15.3095L16.6035 15.0246ZM16.5519 16.0593L16.0548 15.7233L16.0548 15.7233L16.5519 16.0593ZM15.2061 17.4051L15.542 17.9023L15.542 17.9023L15.2061 17.4051ZM14.1716 17.4567L13.8868 17.9848L13.8868 17.9848L14.1716 17.4567ZM13.831 17.2016L14.2109 16.7372L14.1882 16.7186L14.1638 16.7023L13.831 17.2016ZM13.8309 17.2016L13.4468 17.6625L13.4715 17.683L13.4981 17.7008L13.8309 17.2016ZM13.8309 17.2015L14.2151 16.7406L14.2109 16.7372L13.8309 17.2015ZM13.2172 16.7498L12.9805 17.3012L12.9805 17.3012L13.2172 16.7498ZM11.8941 17.2979L11.3369 17.0753L11.3369 17.0754L11.8941 17.2979ZM11.7795 18.0515L12.3765 18.1112L12.3765 18.1112L11.7795 18.0515ZM11.719 18.473L12.2938 18.6452L12.2938 18.6452L11.719 18.473ZM10.9511 19.168L10.8371 18.5789L10.8371 18.5789L10.9511 19.168ZM9.04766 19.168L8.93364 19.757L8.93365 19.757L9.04766 19.168ZM8.27967 18.473L7.70487 18.645L7.70487 18.645L8.27967 18.473ZM8.21923 18.0517L8.81625 17.992L8.8143 17.9724L8.81107 17.953L8.21923 18.0517ZM8.21923 18.0516L7.62221 18.1114L7.62416 18.1309L7.62739 18.1503L8.21923 18.0516ZM8.10466 17.2982L8.66187 17.0756L8.66187 17.0756L8.10466 17.2982ZM6.78156 16.7501L7.01821 17.3015L7.01821 17.3015L6.78156 16.7501ZM6.16776 17.2019L5.78782 16.7375L5.77832 16.7453L5.76914 16.7535L6.16776 17.2019ZM6.16775 17.2019L6.54769 17.6663L6.55719 17.6585L6.56636 17.6504L6.16775 17.2019ZM5.82709 17.4571L5.54231 16.929L5.54231 16.929L5.82709 17.4571ZM4.7926 17.4055L5.12851 16.9083L5.12851 16.9083L4.7926 17.4055ZM4.47902 17.1177L4.90329 16.6934L4.90329 16.6934L4.47902 17.1177ZM3.73449 16.3732L4.15875 15.9489L4.15875 15.9489L3.73449 16.3732ZM3.44669 16.0596L3.94385 15.7237L3.94384 15.7237L3.44669 16.0596ZM3.3951 15.0251L2.86699 14.7403L2.86699 14.7403L3.3951 15.0251ZM3.65026 14.6845L3.20428 14.2831L3.19483 14.2936L3.18588 14.3045L3.65026 14.6845ZM3.65027 14.6844L4.09625 15.0858L4.1057 15.0753L4.11464 15.0644L3.65027 14.6844ZM4.10204 14.0707L4.65339 14.3073L4.65339 14.3073L4.10204 14.0707ZM3.55398 12.7475L3.7765 12.1903L3.7765 12.1903L3.55398 12.7475ZM2.80054 12.633L2.74084 13.23L2.74084 13.23L2.80054 12.633ZM2.37926 12.5725L2.20721 13.1474L2.20722 13.1474L2.37926 12.5725ZM1.68423 11.8045L2.2733 11.6905L2.2733 11.6905L1.68423 11.8045ZM1.66602 11.3793L1.06602 11.3793V11.3793H1.66602ZM1.66602 10.3265L2.26602 10.3265V10.3265H1.66602ZM1.68425 9.9011L1.09519 9.78705L1.09519 9.78705L1.68425 9.9011ZM2.37918 9.1332L2.20708 8.55842L2.20708 8.55842L2.37918 9.1332ZM2.80064 9.07273L2.86035 9.66976L2.8868 9.66711L2.91291 9.66214L2.80064 9.07273ZM2.80065 9.07273L2.74095 8.47571L2.7145 8.47836L2.68838 8.48333L2.80065 9.07273ZM3.55441 8.95811L3.777 9.51529L3.777 9.51529L3.55441 8.95811ZM4.1024 7.63514L4.65378 7.39855L4.65378 7.39855L4.1024 7.63514ZM3.65041 7.02105L4.11479 6.6411L4.11479 6.6411L3.65041 7.02105ZM3.39508 6.68017L2.86694 6.96489L2.86694 6.96489L3.39508 6.68017ZM3.44667 5.64586L2.94948 5.31L2.94948 5.31L3.44667 5.64586ZM3.73463 5.33211L3.31036 4.90784L3.31036 4.90784L3.73463 5.33211ZM3.73463 5.33211L3.31036 4.90784L3.31036 4.90784L3.73463 5.33211ZM4.47906 4.58767L4.90333 5.01193L4.90333 5.01193L4.47906 4.58767ZM4.79264 4.29986L4.45672 3.80271L4.45672 3.80271L4.79264 4.29986ZM5.82713 4.24827L6.11191 3.72016L6.11191 3.72016L5.82713 4.24827ZM6.16785 4.5035L5.7879 4.96787L5.7879 4.96787L6.16785 4.5035ZM6.78147 4.95518L7.0182 4.40386L7.0182 4.40386L6.78147 4.95518ZM8.10475 4.40706L7.54751 4.18461L7.54751 4.18461L8.10475 4.40706ZM8.21924 3.65395L7.62222 3.59425L7.62222 3.59425L8.21924 3.65395ZM8.27964 3.23286L8.85446 3.40486L8.85446 3.40486L8.27964 3.23286ZM9.04775 2.53773L9.1617 3.12681L9.1617 3.12681L9.04775 2.53773ZM10.951 2.53775L10.837 3.12682L10.837 3.12682L10.951 2.53775ZM12.3765 3.59436C12.3572 3.40169 12.3419 3.22139 12.2938 3.06073L11.1442 3.40483C11.1511 3.42786 11.1578 3.46719 11.1824 3.71377L12.3765 3.59436ZM12.4512 4.18498C12.4527 4.1887 12.4422 4.16252 12.4268 4.0536C12.412 3.94829 12.3977 3.8069 12.3765 3.59436L11.1824 3.71377C11.2027 3.91618 11.2196 4.08601 11.2386 4.22092C11.257 4.35223 11.283 4.49529 11.3368 4.63001L12.4512 4.18498ZM12.9805 4.4042C12.7738 4.49292 12.5347 4.39385 12.4512 4.18498L11.3368 4.63001C11.6705 5.4655 12.6271 5.86177 13.4538 5.50691L12.9805 4.4042ZM13.451 4.03943C13.2857 4.17469 13.1756 4.26458 13.0906 4.32857C13.0028 4.39474 12.9768 4.40578 12.9805 4.4042L13.4538 5.50691C13.5871 5.44968 13.7066 5.36689 13.8126 5.28712C13.9214 5.20516 14.0534 5.09699 14.2109 4.96818L13.451 4.03943ZM13.4412 4.04758L13.4412 4.04758L14.2206 4.96003L14.2206 4.96003L13.4412 4.04758ZM13.8867 3.72055C13.7391 3.80015 13.6008 3.91682 13.451 4.03943L14.2109 4.96818C14.4026 4.81127 14.4352 4.78817 14.4563 4.77676L13.8867 3.72055ZM15.542 3.80311C15.0486 3.46972 14.4109 3.43791 13.8867 3.72055L14.4563 4.77676C14.5873 4.7061 14.7468 4.71405 14.8701 4.7974L15.542 3.80311ZM15.9439 4.16377C15.8069 4.02685 15.6809 3.897 15.542 3.80311L14.8701 4.7974C14.89 4.81086 14.9201 4.83708 15.0953 5.01229L15.9439 4.16377ZM16.6884 4.90832L15.9439 4.16377L15.0953 5.01229L15.8399 5.75685L16.6884 4.90832ZM17.0491 5.31022C16.9552 5.17125 16.8253 5.04524 16.6884 4.90832L15.8399 5.75685C16.0151 5.93208 16.0413 5.96214 16.0548 5.98206L17.0491 5.31022ZM17.1316 6.96544C17.4143 6.44132 17.3825 5.80361 17.0491 5.31022L16.0548 5.98206C16.1381 6.10541 16.1461 6.26484 16.0754 6.39587L17.1316 6.96544ZM16.8127 7.40123C16.9354 7.25136 17.052 7.11306 17.1316 6.96544L16.0754 6.39586C16.064 6.41703 16.0409 6.44955 15.884 6.64134L16.8127 7.40123ZM16.7968 7.41991L16.7968 7.4199L15.8999 6.62266L15.8999 6.62268L16.7968 7.41991ZM16.448 7.87172C16.4464 7.87541 16.4574 7.84943 16.5236 7.76157C16.5876 7.67661 16.6775 7.56656 16.8127 7.40124L15.884 6.64135C15.7552 6.7988 15.647 6.93081 15.565 7.03964C15.4853 7.14557 15.4025 7.2651 15.3453 7.39841L16.448 7.87172ZM16.6672 8.40097C16.4583 8.31756 16.3593 8.0784 16.448 7.87172L15.3453 7.39841C14.9904 8.2251 15.3867 9.18174 16.2221 9.51539L16.6672 8.40097ZM17.2578 8.47572C17.0453 8.45447 16.9039 8.44021 16.7986 8.42538C16.6896 8.41004 16.6635 8.39948 16.6672 8.40097L16.2221 9.51539C16.3569 9.56919 16.4999 9.59517 16.6312 9.61366C16.7662 9.63266 16.936 9.64952 17.1384 9.66977L17.2578 8.47572ZM17.7915 8.55839C17.6308 8.51029 17.4505 8.49499 17.2578 8.47572L17.1384 9.66977C17.385 9.69443 17.4244 9.70109 17.4474 9.70799L17.7915 8.55839ZM18.9035 9.78716C18.7904 9.20255 18.362 8.72914 17.7915 8.55839L17.4474 9.70799C17.59 9.75068 17.6971 9.86903 17.7254 10.0152L18.9035 9.78716ZM18.9327 10.3264C18.9327 10.1328 18.9354 9.95182 18.9035 9.78716L17.7254 10.0152C17.73 10.0388 17.7327 10.0786 17.7327 10.3264H18.9327ZM18.9327 11.3794V10.3264H17.7327V11.3794H18.9327ZM18.9036 11.9184C18.9354 11.7538 18.9327 11.573 18.9327 11.3794H17.7327C17.7327 11.6271 17.73 11.6669 17.7254 11.6905L18.9036 11.9184ZM17.7914 13.1474C18.3619 12.9766 18.7904 12.5032 18.9036 11.9184L17.7254 11.6905C17.6971 11.8367 17.59 11.9551 17.4474 11.9978L17.7914 13.1474ZM17.2579 13.23C17.4505 13.2107 17.6308 13.1954 17.7914 13.1474L17.4474 11.9978C17.4243 12.0046 17.385 12.0113 17.1385 12.036L17.2579 13.23ZM16.6676 13.3047C16.6638 13.3062 16.69 13.2956 16.7989 13.2803C16.9041 13.2655 17.0455 13.2512 17.2579 13.23L17.1385 12.036C16.9362 12.0562 16.7664 12.073 16.6316 12.092C16.5003 12.1105 16.3574 12.1365 16.2227 12.1902L16.6676 13.3047ZM16.4483 13.834C16.3595 13.6273 16.4586 13.3881 16.6676 13.3047L16.2227 12.1902C15.387 12.5238 14.9906 13.4807 15.3457 14.3075L16.4483 13.834ZM16.8129 14.3042C16.6777 14.139 16.5879 14.029 16.5239 13.9441C16.4578 13.8563 16.4467 13.8304 16.4483 13.834L15.3457 14.3075C15.4029 14.4408 15.4856 14.5602 15.5654 14.6661C15.6473 14.7748 15.7554 14.9068 15.8841 15.0641L16.8129 14.3042ZM16.7728 14.2599L16.7728 14.2599L15.9242 15.1084L15.9242 15.1085L16.7728 14.2599ZM16.7728 14.2599L16.7728 14.2599L15.9242 15.1085L15.9242 15.1085L16.7728 14.2599ZM17.1316 14.7398C17.052 14.5922 16.9354 14.454 16.8129 14.3043L15.8841 15.0641C16.041 15.2558 16.064 15.2883 16.0754 15.3095L17.1316 14.7398ZM17.049 16.3953C17.3825 15.9018 17.4143 15.264 17.1316 14.7398L16.0754 15.3095C16.1461 15.4405 16.1382 15.6 16.0548 15.7233L17.049 16.3953ZM16.6886 16.7969C16.8254 16.6601 16.9552 16.5342 17.049 16.3953L16.0548 15.7233C16.0413 15.7432 16.0151 15.7733 15.84 15.9484L16.6886 16.7969ZM15.9439 17.5416L16.6886 16.7969L15.84 15.9484L15.0954 16.6931L15.9439 17.5416ZM15.542 17.9023C15.681 17.8084 15.807 17.6785 15.9439 17.5416L15.0954 16.6931C14.9201 16.8683 14.8901 16.8945 14.8702 16.908L15.542 17.9023ZM13.8868 17.9848C14.4109 18.2675 15.0486 18.2356 15.542 17.9023L14.8702 16.908C14.7468 16.9913 14.5874 16.9993 14.4564 16.9286L13.8868 17.9848ZM13.451 17.6659C13.6009 17.7885 13.7392 17.9052 13.8868 17.9848L14.4564 16.9286C14.4352 16.9172 14.4027 16.8941 14.2109 16.7372L13.451 17.6659ZM13.4981 17.7008L13.4981 17.7008L14.1638 16.7023L14.1638 16.7023L13.4981 17.7008ZM13.4468 17.6625L13.4468 17.6625L14.2151 16.7406L14.215 16.7406L13.4468 17.6625ZM12.9805 17.3012C12.9768 17.2996 13.0028 17.3106 13.0907 17.3768C13.1756 17.4408 13.2857 17.5307 13.451 17.6659L14.2109 16.7372C14.0534 16.6084 13.9214 16.5002 13.8126 16.4182C13.7067 16.3385 13.5872 16.2557 13.4539 16.1985L12.9805 17.3012ZM12.4513 17.5204C12.5347 17.3115 12.7739 17.2124 12.9805 17.3012L13.4539 16.1985C12.6272 15.8436 11.6705 16.2399 11.3369 17.0753L12.4513 17.5204ZM12.3765 18.1112C12.3978 17.8986 12.412 17.7571 12.4269 17.6518C12.4422 17.5428 12.4528 17.5167 12.4513 17.5204L11.3369 17.0754C11.283 17.2101 11.2571 17.3532 11.2386 17.4845C11.2196 17.6194 11.2027 17.7893 11.1825 17.9918L12.3765 18.1112ZM12.2938 18.6452C12.3419 18.4844 12.3572 18.304 12.3765 18.1112L11.1825 17.9918C11.1578 18.2385 11.1511 18.2779 11.1442 18.3009L12.2938 18.6452ZM11.0652 19.757C11.6497 19.6438 12.123 19.2155 12.2938 18.6452L11.1442 18.3009C11.1015 18.4435 10.9832 18.5506 10.8371 18.5789L11.0652 19.757ZM10.5257 19.7862C10.7194 19.7862 10.9005 19.7889 11.0652 19.757L10.8371 18.5789C10.8135 18.5835 10.7736 18.5862 10.5257 18.5862V19.7862ZM9.47288 19.7862H10.5257V18.5862H9.47288V19.7862ZM8.93365 19.757C9.09831 19.7889 9.27924 19.7862 9.47288 19.7862V18.5862C9.22507 18.5862 9.18527 18.5835 9.16166 18.5789L8.93365 19.757ZM7.70487 18.645C7.87563 19.2155 8.34904 19.6439 8.93364 19.757L9.16167 18.5789C9.01551 18.5506 8.89716 18.4435 8.85447 18.3009L7.70487 18.645ZM7.62221 18.1114C7.64148 18.304 7.65677 18.4843 7.70487 18.645L8.85447 18.3009C8.84758 18.2779 8.84091 18.2385 8.81625 17.992L7.62221 18.1114ZM7.62739 18.1503L7.62739 18.1503L8.81107 17.953L8.81107 17.953L7.62739 18.1503ZM7.62739 18.1503L7.62739 18.1503L8.81107 17.953L8.81106 17.953L7.62739 18.1503ZM7.54745 17.5207C7.54597 17.517 7.55653 17.5432 7.57186 17.6521C7.5867 17.7574 7.60095 17.8988 7.62221 18.1114L8.81625 17.9919C8.79601 17.7895 8.77914 17.6197 8.76014 17.4848C8.74165 17.3534 8.71568 17.2104 8.66187 17.0756L7.54745 17.5207ZM7.01821 17.3015C7.22488 17.2128 7.46404 17.3118 7.54745 17.5207L8.66187 17.0756C8.32821 16.2402 7.37159 15.8439 6.54491 16.1988L7.01821 17.3015ZM6.5477 17.6663C6.71303 17.531 6.82309 17.4411 6.90805 17.3771C6.99592 17.3109 7.0219 17.2999 7.01821 17.3015L6.54491 16.1988C6.41159 16.256 6.29206 16.3388 6.18613 16.4186C6.07729 16.5005 5.94527 16.6087 5.78782 16.7375L6.5477 17.6663ZM6.56636 17.6504L6.56638 17.6503L5.76914 16.7535L5.76913 16.7535L6.56636 17.6504ZM6.11186 17.9852C6.25949 17.9056 6.39781 17.7889 6.54769 17.6663L5.7878 16.7375C5.596 16.8945 5.56347 16.9176 5.54231 16.929L6.11186 17.9852ZM4.45668 17.9026C4.95007 18.236 5.58776 18.2678 6.11187 17.9852L5.54231 16.929C5.41128 16.9996 5.25186 16.9917 5.12851 16.9083L4.45668 17.9026ZM4.05476 17.542C4.19169 17.6789 4.31771 17.8087 4.45668 17.9027L5.12851 16.9083C5.10859 16.8949 5.07853 16.8687 4.90329 16.6934L4.05476 17.542ZM3.31022 16.7974L4.05476 17.542L4.90329 16.6934L4.15875 15.9489L3.31022 16.7974ZM2.94954 16.3955C3.04344 16.5345 3.1733 16.6605 3.31023 16.7974L4.15875 15.9489C3.98352 15.7737 3.95731 15.7436 3.94385 15.7237L2.94954 16.3955ZM2.86699 14.7403C2.58436 15.2644 2.61617 15.9021 2.94954 16.3955L3.94384 15.7237C3.8605 15.6003 3.85255 15.4409 3.92321 15.3099L2.86699 14.7403ZM3.18588 14.3045C3.06327 14.4544 2.94659 14.5927 2.86699 14.7403L3.92321 15.3099C3.93462 15.2887 3.95771 15.2562 4.11463 15.0644L3.18588 14.3045ZM3.20429 14.2831L3.20428 14.2831L4.09623 15.0858L4.09625 15.0858L3.20429 14.2831ZM3.55068 13.834C3.55226 13.8303 3.54122 13.8563 3.47504 13.9442C3.41106 14.0291 3.32116 14.1392 3.1859 14.3045L4.11464 15.0644C4.24346 14.9069 4.35163 14.7749 4.4336 14.6661C4.51337 14.5602 4.59617 14.4406 4.65339 14.3073L3.55068 13.834ZM3.33146 13.3048C3.54033 13.3882 3.6394 13.6273 3.55068 13.834L4.65339 14.3073C5.00824 13.4806 4.61198 12.524 3.7765 12.1903L3.33146 13.3048ZM2.74084 13.23C2.95338 13.2513 3.09477 13.2655 3.20008 13.2803C3.309 13.2957 3.33518 13.3062 3.33146 13.3048L3.7765 12.1903C3.64177 12.1365 3.49872 12.1106 3.3674 12.0921C3.23249 12.0731 3.06266 12.0562 2.86024 12.036L2.74084 13.23ZM2.20722 13.1474C2.36788 13.1954 2.54817 13.2107 2.74084 13.23L2.86025 12.036C2.61368 12.0113 2.57435 12.0046 2.55131 11.9977L2.20722 13.1474ZM1.09516 11.9185C1.2083 12.5032 1.63675 12.9766 2.20721 13.1474L2.55132 11.9977C2.4087 11.9551 2.30159 11.8367 2.2733 11.6905L1.09516 11.9185ZM1.06602 11.3793C1.06602 11.573 1.0633 11.7539 1.09516 11.9185L2.2733 11.6905C2.26873 11.6669 2.26602 11.6271 2.26602 11.3793H1.06602ZM1.06602 10.3265L1.06602 11.3793L2.26602 11.3793L2.26602 10.3265L1.06602 10.3265ZM1.09519 9.78705C1.06329 9.95177 1.06602 10.1328 1.06602 10.3265H2.26602C2.26602 10.0786 2.26874 10.0388 2.27331 10.0152L1.09519 9.78705ZM2.20708 8.55842C1.63673 8.72919 1.20836 9.20253 1.09519 9.78705L2.27331 10.0152C2.3016 9.86902 2.40869 9.75069 2.55128 9.70799L2.20708 8.55842ZM2.74094 8.47571C2.54819 8.49499 2.36782 8.51029 2.20708 8.55842L2.55128 9.70799C2.57432 9.70109 2.61367 9.69443 2.86035 9.66976L2.74094 8.47571ZM2.68838 8.48333L2.68838 8.48333L2.91291 9.66214L2.91292 9.66214L2.68838 8.48333ZM3.33182 8.40093C3.33554 8.39944 3.30935 8.41 3.20039 8.42535C3.09503 8.44019 2.95358 8.45445 2.74095 8.47571L2.86035 9.66976C3.06285 9.64951 3.23276 9.63263 3.36773 9.61362C3.4991 9.59512 3.64222 9.56914 3.777 9.51529L3.33182 8.40093ZM3.55101 7.87174C3.63969 8.07839 3.54064 8.3175 3.33182 8.40093L3.777 9.51529C4.61229 9.1816 5.00847 8.22515 4.65378 7.39855L3.55101 7.87174ZM3.18604 7.40099C3.32138 7.5664 3.41132 7.67652 3.47534 7.76152C3.54155 7.84943 3.5526 7.87543 3.55101 7.87174L4.65378 7.39855C4.59655 7.26517 4.51372 7.14559 4.4339 7.03961C4.3519 6.93072 4.24368 6.79863 4.11479 6.6411L3.18604 7.40099ZM2.86694 6.96489C2.94658 7.11261 3.06333 7.25102 3.18604 7.40099L4.11479 6.6411C3.95775 6.44917 3.93464 6.41662 3.92322 6.39545L2.86694 6.96489ZM2.94948 5.31C2.61623 5.80332 2.58443 6.44086 2.86694 6.96489L3.92322 6.39545C3.8526 6.26444 3.86055 6.10505 3.94386 5.98172L2.94948 5.31ZM3.31036 4.90784C3.17336 5.04485 3.04342 5.17094 2.94948 5.31L3.94386 5.98172C3.95732 5.96179 3.98355 5.93171 4.15889 5.75637L3.31036 4.90784ZM3.31036 4.90784L3.31036 4.90784L4.15889 5.75637L4.15889 5.75637L3.31036 4.90784ZM4.0548 4.16341L3.31036 4.90784L4.15889 5.75637L4.90333 5.01193L4.0548 4.16341ZM4.45672 3.80271C4.31775 3.89661 4.19173 4.02648 4.0548 4.16341L4.90333 5.01193C5.07856 4.8367 5.10863 4.81048 5.12855 4.79702L4.45672 3.80271ZM6.11191 3.72016C5.5878 3.43754 4.9501 3.46934 4.45672 3.80271L5.12855 4.79702C5.2519 4.71368 5.41132 4.70572 5.54235 4.77638L6.11191 3.72016ZM6.54779 4.03913C6.39788 3.91647 6.25953 3.79977 6.11191 3.72016L5.54235 4.77638C5.56351 4.78779 5.59605 4.8109 5.7879 4.96787L6.54779 4.03913ZM7.0182 4.40386C7.02189 4.40544 6.99592 4.39439 6.90806 4.32822C6.82312 4.26425 6.71308 4.17436 6.54779 4.03913L5.7879 4.96787C5.94532 5.09667 6.07731 5.20481 6.18611 5.28676C6.292 5.36651 6.41148 5.44929 6.54473 5.5065L7.0182 4.40386ZM7.54751 4.18461C7.46411 4.39352 7.2249 4.49261 7.0182 4.40386L6.54473 5.5065C7.37153 5.86152 8.32839 5.46518 8.66199 4.62951L7.54751 4.18461ZM7.62222 3.59425C7.60097 3.8067 7.58673 3.94802 7.57191 4.05329C7.55658 4.16216 7.54603 4.18833 7.54751 4.18461L8.66199 4.62951C8.71575 4.49484 8.74171 4.35184 8.76019 4.22059C8.77917 4.08573 8.79603 3.91598 8.81626 3.71365L7.62222 3.59425ZM7.70482 3.06086C7.65677 3.22146 7.64148 3.40167 7.62222 3.59425L8.81626 3.71366C8.84091 3.46719 8.84757 3.42789 8.85446 3.40486L7.70482 3.06086ZM8.9338 1.94865C8.34907 2.06176 7.87556 2.49029 7.70482 3.06086L8.85446 3.40486C8.89714 3.26222 9.01552 3.15509 9.1617 3.12681L8.9338 1.94865ZM9.47276 1.91953C9.27922 1.91953 9.09838 1.91682 8.9338 1.94865L9.1617 3.12681C9.1853 3.12225 9.22507 3.11953 9.47276 3.11953V1.91953ZM10.5258 1.91953H9.47276V3.11953H10.5258V1.91953ZM11.065 1.94868C10.9004 1.91681 10.7195 1.91953 10.5258 1.91953V3.11953C10.7736 3.11953 10.8134 3.12225 10.837 3.12682L11.065 1.94868ZM12.2938 3.06073C12.1231 2.49026 11.6497 2.06182 11.065 1.94868L10.837 3.12682C10.9832 3.1551 11.1015 3.26221 11.1442 3.40483L12.2938 3.06073ZM12.7327 10.8529C12.7327 12.3624 11.5089 13.5862 9.99935 13.5862V14.7862C12.1717 14.7862 13.9327 13.0252 13.9327 10.8529H12.7327ZM9.99935 8.11953C11.5089 8.11953 12.7327 9.34329 12.7327 10.8529H13.9327C13.9327 8.68055 12.1717 6.91953 9.99935 6.91953V8.11953ZM7.26602 10.8529C7.26602 9.34329 8.48977 8.11953 9.99935 8.11953V6.91953C7.82703 6.91953 6.06602 8.68055 6.06602 10.8529H7.26602ZM9.99935 13.5862C8.48977 13.5862 7.26602 12.3624 7.26602 10.8529H6.06602C6.06602 13.0252 7.82703 14.7862 9.99935 14.7862V13.5862Z" fill="#535353"/>
</g>
</svg>
