<svg width="24" height="24" viewBox="0 0 24 24" fill="none" xmlns="http://www.w3.org/2000/svg">
<g id="bytesize:portfolio">
<path id="Vector" fill-rule="evenodd" clip-rule="evenodd" d="M14.8963 16.6643C14.1644 16.4462 13.356 16.3265 12.5 16.3265C11.644 16.3265 10.8357 16.4479 10.1037 16.6643C10.2233 17.1622 10.3605 17.624 10.511 18.0428C11.0608 19.5699 11.7671 20.5154 12.4973 20.5154C13.2265 20.5154 13.9338 19.5715 14.4836 18.0428C14.6349 17.6214 14.7721 17.1596 14.8909 16.6643H14.8963ZM3.50365 11.0599H8.6514C8.67603 9.57322 8.82294 8.17106 9.06572 6.92978C8.91441 6.86645 8.76839 6.80135 8.62413 6.73186C7.67407 6.26563 6.90174 5.63051 6.39239 4.88719C6.30267 4.97075 6.2147 5.05344 6.12849 5.13965C4.59697 6.67117 3.6153 8.75157 3.5 11.0625L3.50365 11.0599ZM7.08381 4.31008C8.13591 3.5175 9.36482 2.95188 10.7002 2.68004C10.3088 3.18937 9.96132 3.86496 9.67102 4.67073C9.51972 5.09209 9.38072 5.55129 9.25934 6.04213C9.17577 6.00606 9.09484 5.96824 9.01656 5.92953C8.17471 5.51522 7.50088 4.95662 7.08217 4.31006L7.08381 4.31008ZM14.2971 2.68004C14.6885 3.18937 15.036 3.86496 15.3263 4.67073C15.4776 5.09209 15.6166 5.55129 15.738 6.04213C15.8215 6.00606 15.9025 5.96824 15.9807 5.92953C16.8226 5.51522 17.4964 4.95662 17.9151 4.31006C16.863 3.51748 15.6341 2.95186 14.2987 2.68002L14.2971 2.68004ZM18.6075 4.88714C18.6973 4.97071 18.7852 5.0534 18.8714 5.13961C20.403 6.67112 21.3846 8.75153 21.4999 11.0625H16.3522C16.3275 9.57584 16.1806 8.17368 15.9379 6.9324C16.0892 6.86906 16.2352 6.80396 16.3794 6.73447C17.3295 6.26825 18.1018 5.63313 18.6112 4.8898L18.6075 4.88714ZM21.4964 11.9554H16.3486C16.324 13.442 16.1771 14.8442 15.9343 16.0855C16.0856 16.1488 16.2316 16.2139 16.3759 16.2834C17.3259 16.7496 18.0983 17.3847 18.6076 18.1281C18.6973 18.0445 18.7853 17.9618 18.8715 17.8756C20.403 16.3441 21.3847 14.2637 21.5 11.9527L21.4964 11.9554ZM17.9162 18.7052C16.8641 19.4977 15.6352 20.0634 14.2998 20.3352C14.6912 19.8259 15.0387 19.1503 15.329 18.3445C15.4803 17.9231 15.6193 17.464 15.7407 16.9731C15.8242 17.0092 15.9052 17.047 15.9834 17.0857C16.8253 17.5 17.4991 18.0586 17.9178 18.7052L17.9162 18.7052ZM10.7029 20.3352C9.36496 20.0651 8.13615 19.4977 7.08652 18.7052C7.50524 18.0586 8.17642 17.5 9.0209 17.0857C9.10007 17.047 9.18276 17.0092 9.26369 16.9731C9.38508 17.464 9.5223 17.9232 9.67537 18.3445C9.96567 19.1503 10.3122 19.8259 10.7046 20.3352L10.7029 20.3352ZM6.39246 18.1281C6.90179 17.3848 7.67414 16.7497 8.6242 16.2834C8.76583 16.2139 8.9145 16.1462 9.06578 16.0855C8.823 14.8425 8.67608 13.4422 8.65147 11.9554H3.50372C3.61631 14.2637 4.60067 16.344 6.1322 17.8783C6.21753 17.9636 6.3055 18.0472 6.39611 18.1308L6.39246 18.1281ZM15.0828 7.22637C14.2858 7.45859 13.414 7.58438 12.5 7.58438C11.586 7.58438 10.7143 7.45595 9.91723 7.22637C9.70083 8.37962 9.57063 9.67897 9.54777 11.0592H15.4522C15.4293 9.679 15.2965 8.37982 15.0828 7.22637ZM10.1039 6.3511C10.8358 6.56926 11.6442 6.68889 12.5002 6.68889C13.3562 6.68889 14.1646 6.5675 14.8965 6.3511C14.7769 5.85321 14.6397 5.39138 14.4892 4.97265C13.9395 3.44555 13.2331 2.5 12.503 2.5C11.7737 2.5 11.0664 3.44564 10.5167 4.97265C10.3653 5.39401 10.2281 5.85585 10.1094 6.3511H10.1039ZM9.91743 15.7891C10.7144 15.5568 11.5862 15.431 12.5002 15.431C13.4142 15.431 14.2859 15.5595 15.083 15.7891C15.2994 14.6358 15.4296 13.3364 15.4524 11.9562H9.54801C9.57089 13.3364 9.70367 14.6356 9.91743 15.7891Z" fill="#535353"/>
</g>
</svg>
