<?xml version="1.0" encoding="UTF-8" standalone="no"?>
<!-- by TradingView -->

<svg
   width="29.989988"
   height="29.875406"
   version="1.1"
   id="svg7"
   sodipodi:docname="ARAMCO.svg"
   xmlns:inkscape="http://www.inkscape.org/namespaces/inkscape"
   xmlns:sodipodi="http://sodipodi.sourceforge.net/DTD/sodipodi-0.dtd"
   xmlns="http://www.w3.org/2000/svg"
   xmlns:svg="http://www.w3.org/2000/svg">
  <sodipodi:namedview
     id="namedview7"
     pagecolor="#ffffff"
     bordercolor="#000000"
     borderopacity="0.25"
     inkscape:showpageshadow="2"
     inkscape:pageopacity="0.0"
     inkscape:pagecheckerboard="0"
     inkscape:deskcolor="#d1d1d1">
    <inkscape:page
       x="0"
       y="0"
       width="29.989988"
       height="29.875406"
       id="page2"
       margin="0"
       bleed="0" />
  </sodipodi:namedview>
  <path
     fill="#f0f3fa"
     d="M 8.6303711e-8,8.6303711e-8 H 29.98999 V 29.875408 H 8.6303707e-8 Z"
     id="path1"
     style="stroke-width:0.534512" />
  <path
     d="m 29.937704,29.937704 h -8.35 c -6.56,-7.13 -21.64999991,-29.99999991 -21.64999991,-29.99999991 H 29.937704 Z"
     fill="url(#asouijlg5)"
     id="path2"
     style="fill:url(#asouijlg5)" />
  <path
     d="m -0.06229591,-0.06229591 c 0,0 9.18000001,2.69000001 17.14999991,11.34999991 6.57,7.13 8.93,18.65 8.93,18.65 H -0.06229591 Z"
     fill="url(#bsouijlg5)"
     id="path3"
     style="fill:url(#bsouijlg5)" />
  <path
     d="m 11.227704,0.79770409 c 0.01,-0.06 -0.06,-0.13 -0.17,-0.17 -0.1,-0.05 -0.2,-0.05 -0.22,0.02 -0.02,0.06 0.06,0.13 0.17,0.17 0.1,0.04 0.2,0.04 0.22,-0.02 z m 0.57,0.55000001 c 0.12,0.05 0.2,0.13 0.18,0.2 -0.02,0.06 -0.12,0.06 -0.24,0 -0.12,-0.04 -0.2,-0.12 -0.18,-0.19 0.02,-0.07 0.12,-0.07 0.24,-0.01 z m -0.28,0.44 c 0.15,0.06 0.23,0.14 0.21,0.22 -0.02,0.07 -0.15,0.08 -0.28,0.02 -0.15,-0.05 -0.23,-0.14 -0.21,-0.22 0.03,-0.07 0.15,-0.07 0.28,-0.02 z m 0.73,0.85 c 0.18,0.07 0.3,0.19 0.27,0.28 -0.02,0.1 -0.18,0.11 -0.36,0.04 -0.18,-0.07 -0.29,-0.2 -0.27,-0.29 0.03,-0.09 0.19,-0.1 0.36,-0.03 z m -0.27,0.56 c 0.16,0.07 0.26,0.18 0.25,0.27 -0.03,0.09 -0.17,0.11 -0.34,0.05 -0.17,-0.07 -0.27,-0.19 -0.25,-0.27 0.03,-0.1 0.17,-0.11 0.34,-0.05 z m 2.43,1.32 c 0.02,-0.1 -0.09,-0.24 -0.25,-0.33 -0.18,-0.08 -0.32,-0.08 -0.36,0.02 -0.02,0.1 0.1,0.24 0.26,0.33 0.18,0.09 0.33,0.08 0.35,-0.02 z m -1.7,-2.13 c 0.02,-0.08 -0.07,-0.16 -0.2,-0.22 -0.14,-0.05 -0.25,-0.05 -0.27,0.02 -0.03,0.08 0.07,0.17 0.2,0.22 0.14,0.06 0.25,0.05 0.27,-0.02 z m -9.1099999,-1.05 c 0.17,0.05 0.25,0.15 0.18,0.23 -0.06,0.08 -0.25,0.1 -0.42,0.04 -0.18,-0.05 -0.26,-0.15 -0.19,-0.23 0.07,-0.07 0.26,-0.1 0.43,-0.04 z m 1.64,0.76 c 0.07,-0.1 -0.03,-0.22 -0.23,-0.3 -0.2,-0.06 -0.42,-0.04 -0.5,0.05 -0.08,0.1 0.02,0.23 0.23,0.3 0.21,0.06 0.42,0.04 0.5,-0.05 z m 1.47,0.53 c 0.08,-0.12 -0.04,-0.28 -0.28,-0.38 -0.24,-0.09 -0.5,-0.07 -0.59,0.05 -0.08,0.13 0.04,0.29 0.29,0.38 0.25,0.1 0.5,0.07 0.58,-0.05 z m 0.61,0.8 c 0.26,0.1 0.4,0.28 0.32,0.42 -0.09,0.13 -0.35,0.16 -0.61,0.07 -0.27,-0.1 -0.4,-0.29 -0.32,-0.43 0.09,-0.13 0.36,-0.16 0.61,-0.07 z m 1.65,0.96 c 0.07,-0.15 -0.07,-0.35 -0.33,-0.46 -0.27,-0.1 -0.54,-0.08 -0.62,0.07 -0.08,0.15 0.07,0.34 0.34,0.45 0.27,0.11 0.53,0.08 0.6,-0.06 z m 1.8499999,1.34 c 0.29,0.13 0.45,0.36 0.39,0.54 -0.08,0.18 -0.36,0.21 -0.65,0.08 -0.3,-0.13 -0.46,-0.36 -0.4,-0.55 0.1,-0.16 0.38,-0.2 0.66,-0.07 z m -0.54,-0.78 c 0.07,-0.17 -0.1,-0.39 -0.3699999,-0.51 -0.28,-0.12 -0.57,-0.1 -0.65,0.06 -0.08,0.16 0.08,0.38 0.37,0.51 0.3,0.12 0.5699999,0.1 0.6499999,-0.06 z m 0.9,0.04 c 0.3,0.14 0.46,0.38 0.4,0.56 -0.07,0.17 -0.36,0.2 -0.67,0.07 -0.3,-0.14 -0.48,-0.39 -0.4,-0.57 0.08,-0.17 0.37,-0.2 0.67,-0.06 z m -3.0999999,-1.82 c 0.08,-0.14 -0.06,-0.34 -0.34,-0.45 -0.27,-0.11 -0.55,-0.1 -0.65,0.05 -0.09,0.14 0.06,0.34 0.34,0.45 0.28,0.11 0.56,0.1 0.65,-0.05 z m 0.95,0.15 c 0.21,0.1 0.33,0.26 0.27,0.37 -0.07,0.12 -0.29,0.13 -0.5,0.04 -0.23,-0.1 -0.34,-0.26 -0.28,-0.38 0.07,-0.11 0.29,-0.13 0.5,-0.03 z m 0.81,2.33 c 0.07,-0.15 -0.07,-0.35 -0.32,-0.46 -0.26,-0.1 -0.5,-0.07 -0.59,0.07 -0.06,0.16 0.08,0.36 0.33,0.47 0.26,0.1 0.51,0.07 0.58,-0.08 z m 0.3799999,-1.83 c 0.19,0.09 0.3,0.24 0.25,0.34 -0.05,0.1 -0.24,0.12 -0.43,0.04 -0.1999999,-0.09 -0.2999999,-0.24 -0.2599999,-0.34 0.05,-0.1 0.2399999,-0.12 0.4399999,-0.04 z m -3.9899999,-0.5 c 0.07,-0.1 -0.04,-0.24 -0.24,-0.32 -0.2,-0.06 -0.42,-0.04 -0.5,0.06 -0.06,0.11 0.04,0.24 0.25,0.32 0.2,0.07 0.42,0.04 0.49,-0.06 z m 5.2199999,1.09 c 0.16,0.08 0.26,0.21 0.23,0.31 -0.04,0.1 -0.2,0.1 -0.38,0.03 -0.17,-0.08 -0.27,-0.22 -0.23,-0.31 0.04,-0.1 0.2,-0.11 0.38,-0.03 z m -2.9999999,0.65 c 0.05,-0.12 -0.06,-0.28 -0.27,-0.36 -0.21,-0.09 -0.43,-0.06 -0.5,0.05 -0.06,0.13 0.05,0.29 0.27,0.38 0.21,0.08 0.42,0.05 0.5,-0.07 z m 9.7799999,-3 c 0,-0.07 -0.08,-0.15 -0.2,-0.22 -0.1,-0.06 -0.2,-0.09 -0.21,-0.02 -0.01,0.06 0.08,0.14 0.2,0.21 0.1,0.07 0.2,0.1 0.2,0.02 z m -0.26,0.22 c 0.13,0.07 0.23,0.17 0.22,0.24 -0.01,0.08 -0.12,0.06 -0.25,-0.02 -0.14,-0.08 -0.23,-0.17 -0.22,-0.25 0,-0.07 0.12,-0.05 0.25,0.03 z m 0.17,0.7 c 0.01,-0.08 -0.1,-0.18 -0.24,-0.26 -0.14,-0.08 -0.26,-0.1 -0.28,-0.03 -0.01,0.1 0.1,0.2 0.24,0.28 0.15,0.08 0.26,0.1 0.28,0.02 z m -0.31,0.2 c 0.17,0.1 0.29,0.22 0.27,0.32 0,0.1 -0.15,0.09 -0.32,0 -0.17,-0.1 -0.29,-0.23 -0.28,-0.33 0.03,-0.1 0.16,-0.08 0.33,0.02 z m 0.23,0.82 c 0,-0.1 -0.12,-0.25 -0.3,-0.35 -0.19,-0.1 -0.34,-0.1 -0.36,-0.01 -0.01,0.1 0.12,0.25 0.3,0.35 0.19,0.1 0.34,0.1 0.36,0.01 z m -0.38,0.13 c 0.2,0.1 0.34,0.27 0.32,0.38 -0.01,0.11 -0.18,0.11 -0.38,0 -0.2,-0.1 -0.34,-0.28 -0.32,-0.39 0.02,-0.1 0.19,-0.1 0.38,0 z m 0.27,0.95 c 0,-0.12 -0.14,-0.3 -0.35,-0.42 -0.22,-0.12 -0.4,-0.12 -0.42,0 -0.02,0.13 0.13,0.31 0.35,0.43 0.21,0.12 0.4,0.11 0.42,-0.01 z m -0.44,0.15 c 0.23,0.12 0.39,0.33 0.37,0.46 -0.02,0.14 -0.22,0.15 -0.45,0.03 -0.24,-0.13 -0.4,-0.34 -0.38,-0.47 0.04,-0.14 0.23,-0.14 0.46,-0.02 z m -0.1,0.59 c 0.25,0.13 0.42,0.35 0.4,0.5 -0.02,0.16 -0.23,0.17 -0.48,0.04 -0.26,-0.13 -0.43,-0.36 -0.4,-0.5 0.03,-0.16 0.24,-0.17 0.49,-0.04 z m 1.03,0.62 c -0.2,-0.1 -0.36,-0.1 -0.38,0.02 0,0.13 0.13,0.3 0.33,0.41 0.2,0.1 0.35,0.09 0.37,-0.03 0.01,-0.12 -0.13,-0.3 -0.32,-0.4 z m -0.3,-0.6 c 0.02,-0.1 0.16,-0.1 0.34,-0.01 0.16,0.1 0.28,0.24 0.27,0.34 -0.01,0.1 -0.15,0.12 -0.32,0.03 -0.17,-0.1 -0.3,-0.25 -0.28,-0.35 z m 0.36,-0.6 c -0.16,-0.08 -0.28,-0.09 -0.3,0.01 0,0.1 0.1,0.22 0.26,0.31 0.16,0.08 0.28,0.09 0.3,-0.01 0,-0.1 -0.11,-0.22 -0.26,-0.3 z m -0.24,-0.54 c 0.01,-0.1 0.13,-0.08 0.27,0 0.14,0.07 0.25,0.18 0.24,0.28 -0.02,0.09 -0.13,0.08 -0.27,0 -0.14,-0.08 -0.25,-0.2 -0.24,-0.28 z m 0.3,-0.56 c -0.13,-0.06 -0.24,-0.08 -0.24,0 -0.01,0.08 0.08,0.18 0.2,0.25 0.13,0.07 0.23,0.08 0.24,0 0,-0.08 -0.08,-0.17 -0.2,-0.24 z m -0.2,-0.5 c 0,-0.06 0.1,-0.05 0.22,0.02 0.11,0.06 0.2,0.15 0.19,0.22 0,0.08 -0.1,0.06 -0.22,0 -0.12,-0.07 -0.2,-0.16 -0.2,-0.23 z m 0.24,-0.48 c -0.1,-0.06 -0.19,-0.08 -0.2,-0.01 0,0.06 0.07,0.14 0.18,0.2 0.1,0.05 0.19,0.07 0.19,0 0,-0.06 -0.07,-0.13 -0.17,-0.19 z m -1.94,2.54 c 0.03,-0.12 -0.11,-0.3 -0.3,-0.4 -0.2,-0.1 -0.38,-0.1 -0.41,0.02 -0.03,0.12 0.11,0.3 0.31,0.4 0.2,0.1 0.38,0.1 0.4,-0.02 z m -0.14,-0.96 c 0.18,0.09 0.3,0.24 0.27,0.34 -0.02,0.1 -0.17,0.1 -0.34,0 -0.18,-0.08 -0.3,-0.23 -0.28,-0.34 0.03,-0.09 0.18,-0.1 0.35,0 z m 0.4,-0.25 c 0.02,-0.1 -0.09,-0.22 -0.24,-0.3 -0.16,-0.08 -0.29,-0.1 -0.31,0 -0.02,0.1 0.09,0.22 0.25,0.3 0.15,0.1 0.28,0.1 0.3,0 z m -0.1,-0.8 c 0.15,0.09 0.25,0.2 0.24,0.28 -0.02,0.1 -0.14,0.08 -0.3,0 -0.14,-0.08 -0.24,-0.19 -0.22,-0.27 0.02,-0.1 0.14,-0.08 0.29,0 z m 0.34,-0.22 c 0.02,-0.08 -0.07,-0.17 -0.2,-0.24 -0.13,-0.07 -0.23,-0.08 -0.25,0 -0.02,0.07 0.07,0.16 0.2,0.24 0.13,0.07 0.24,0.08 0.25,0 z m -0.08,-0.64 c 0.11,0.07 0.2,0.16 0.19,0.23 -0.02,0.06 -0.12,0.05 -0.23,-0.02 -0.13,-0.06 -0.2,-0.15 -0.2,-0.22 0.02,-0.07 0.12,-0.05 0.24,0.01 z m 0.29,-0.2 c 0,-0.07 -0.07,-0.14 -0.17,-0.2 -0.1,-0.05 -0.2,-0.07 -0.2,-0.01 -0.02,0.06 0.06,0.13 0.16,0.2 0.1,0.05 0.2,0.06 0.2,0 z m -3.02,2.6 c 0.03,-0.14 -0.12,-0.34 -0.36,-0.47 -0.24,-0.11 -0.46,-0.1 -0.51,0.03 -0.05,0.15 0.1,0.35 0.35,0.48 0.25,0.12 0.47,0.1 0.52,-0.04 z m -0.16,0.72 c 0.05,-0.17 -0.13,-0.4 -0.4,-0.54 -0.28,-0.13 -0.53,-0.11 -0.6,0.05 -0.05,0.17 0.13,0.4 0.41,0.55 0.28,0.13 0.54,0.11 0.59,-0.06 z m 3.13,0.46 c 0.29,0.16 0.5,0.43 0.48,0.61 -0.04,0.17 -0.23,0.21 -0.47,0.12 0.21,0.15 0.37,0.35 0.4,0.52 0.1,-0.1 0.31,-0.1 0.56,0.02 0.26,0.14 0.45,0.36 0.49,0.56 0.07,-0.14 0.3,-0.14 0.55,0 0.3,0.16 0.51,0.44 0.5,0.65 -0.02,0.18 -0.2,0.23 -0.45,0.14 0.23,0.17 0.4,0.4 0.44,0.59 0.07,-0.15 0.29,-0.15 0.54,-0.02 0.3,0.17 0.53,0.4699999 0.53,0.6999999 -0.02,0.22 -0.26,0.27 -0.57,0.1 -0.27,-0.14 -0.48,-0.3999999 -0.52,-0.5999999 -0.05,0.12 -0.2,0.16 -0.38,0.12 0.18,0.1699999 0.31,0.3599999 0.34,0.5299999 0.07,-0.15 0.3,-0.16 0.56,-0.02 0.3,0.17 0.53,0.48 0.53,0.72 -0.02,0.25 -0.27,0.3 -0.59,0.14 -0.27,-0.16 -0.48,-0.42 -0.52,-0.65 -0.07,0.15 -0.26,0.2 -0.5,0.11 0.27,0.2 0.46,0.5 0.44,0.74 -0.02,0.2 -0.17,0.3 -0.4,0.27 0.18,0.17 0.3,0.36 0.32,0.54 0.08,-0.2 0.32,-0.23 0.6,-0.08 0.33,0.18 0.57,0.53 0.56,0.8 -0.02,0.29 -0.28,0.36 -0.62,0.19 a 1.1,1.1 0 0 1 -0.55,-0.7 c -0.06,0.17 -0.22,0.24 -0.44,0.2 0.2,0.18 0.33,0.41 0.36,0.63 0.08,-0.2 0.33,-0.24 0.63,-0.1 0.33,0.19 0.58,0.56 0.56,0.86 -0.02,0.3 -0.3,0.39 -0.64,0.2 -0.3,-0.16 -0.52,-0.47 -0.57,-0.74 -0.06,0.19 -0.25,0.26 -0.5,0.2 0.24,0.2 0.39,0.5 0.37,0.74 -0.03,0.31 -0.33,0.42 -0.7,0.23 -0.36,-0.19 -0.6,-0.58 -0.57,-0.9 0.03,-0.23 0.22,-0.34 0.48,-0.3 -0.18,-0.13 -0.3,-0.32 -0.37,-0.5 -0.14,0.14 -0.4,0.15 -0.67,0 a 1.18,1.18 0 0 1 -0.57,-0.62 c -0.14,0.1 -0.33,0.13 -0.56,0.05 0.27,0.2 0.43,0.5 0.4,0.76 -0.06,0.31 -0.38,0.41 -0.76,0.23 -0.37,-0.19 -0.61,-0.57 -0.55,-0.88 0.05,-0.26 0.31,-0.36 0.62,-0.26 -0.2,-0.14 -0.34,-0.33 -0.4,-0.52 -0.17,0.12 -0.42,0.13 -0.7,0 -0.34,-0.17 -0.56,-0.46 -0.6,-0.73 -0.11,0.13 -0.3,0.18 -0.53,0.14 0.21,0.19 0.33,0.44 0.28,0.66 -0.08,0.3 -0.44,0.4 -0.82,0.22 -0.39,-0.19 -0.62,-0.56 -0.54,-0.86 0.07,-0.21 0.29,-0.31 0.55,-0.28 -0.25,-0.2 -0.38,-0.49 -0.32,-0.73 0.08,-0.2199999 0.3,-0.3199999 0.6,-0.2699999 -0.25,-0.21 -0.37,-0.47 -0.31,-0.69 0.05,-0.2 0.25,-0.29 0.5,-0.25 -0.2,-0.2 -0.3,-0.43 -0.25,-0.61 0.07,-0.23 0.33,-0.3 0.65,-0.2 -0.29,-0.2 -0.45,-0.47 -0.4,-0.69 0.06,-0.17 0.26,-0.24 0.52,-0.2 -0.21,-0.18 -0.33,-0.4 -0.3,-0.56 -0.06,0.2 -0.36,0.23 -0.7,0.08 -0.33,-0.17 -0.54,-0.46 -0.47,-0.67 0.07,-0.2 0.38,-0.23 0.7,-0.07 0.33,0.16 0.53,0.43 0.48,0.64 0.07,-0.19 0.32,-0.23 0.61,-0.13 -0.25,-0.17 -0.4,-0.4 -0.35,-0.58 0.06,-0.2 0.34,-0.22 0.66,-0.06 0.3,0.16 0.53,0.43 0.48,0.62 0.06,-0.2 0.33,-0.2 0.64,-0.05 0.25,0.14 0.44,0.35 0.48,0.54 0.08,-0.12 0.27,-0.14 0.5,-0.05 -0.23,-0.16 -0.37,-0.39 -0.35,-0.55 0.04,-0.18 0.3,-0.2 0.6,-0.05 z m 0.65,7.3599999 c 0.03,-0.24 -0.17,-0.54 -0.45,-0.69 -0.29,-0.14 -0.54,-0.07 -0.58,0.17 -0.04,0.25 0.16,0.56 0.45,0.7 0.3,0.15 0.55,0.08 0.58,-0.18 z m 1.97,-4.8299999 c 0.02,-0.18 0.22,-0.2 0.47,-0.07 0.26,0.14 0.45,0.39 0.44,0.57 0,0.18 -0.21,0.22 -0.47,0.08 -0.26,-0.14 -0.45,-0.4 -0.44,-0.58 z m 0.13,5.3999999 c -0.31,-0.16 -0.57,-0.07 -0.6,0.21 -0.02,0.29 0.2,0.64 0.53,0.81 0.31,0.17 0.57,0.08 0.6,-0.21 0,-0.29 -0.22,-0.63 -0.53,-0.8 z m -0.35,-2.88 c 0.02,-0.23 0.25,-0.28 0.54,-0.13 0.29,0.16 0.5,0.46 0.5,0.69 -0.03,0.23 -0.26,0.3 -0.55,0.14 -0.3,-0.16 -0.5,-0.46 -0.5,-0.7 z m -1.31,-4.3799999 c -0.22,-0.11 -0.4,-0.1 -0.42,0.04 -0.01,0.14 0.14,0.34 0.35,0.45 0.22,0.12 0.4,0.1 0.42,-0.04 0.01,-0.14 -0.14,-0.33 -0.35,-0.45 z m 1.62,1.14 c 0.01,-0.15 0.2,-0.18 0.42,-0.05 0.22,0.12 0.39,0.33 0.39,0.49 -0.01,0.15 -0.2,0.18 -0.42,0.06 -0.23,-0.13 -0.4,-0.35 -0.39,-0.5 z m -0.64,-0.6 c -0.2,-0.1 -0.37,-0.09 -0.38,0.04 -0.02,0.14 0.14,0.34 0.34,0.45 0.2,0.1 0.38,0.09 0.39,-0.05 0,-0.14 -0.14,-0.33 -0.35,-0.44 z m -5.1,4.2999999 c 0.06,-0.23 0.33,-0.3 0.63,-0.16 0.3,0.15 0.48,0.44 0.43,0.68 -0.05,0.24 -0.32,0.32 -0.63,0.18 -0.3,-0.15 -0.49,-0.45 -0.43,-0.7 z m -2.1,-1.5 c 0.35,0.17 0.55,0.49 0.48,0.75 -0.08,0.27 -0.42,0.35 -0.77,0.2 -0.35,-0.17 -0.56,-0.5 -0.48,-0.77 0.1,-0.25 0.43,-0.33 0.78,-0.17 z m 0.82,-0.21 c 0.07,-0.2799999 -0.15,-0.6099999 -0.52,-0.7999999 -0.37,-0.16 -0.73,-0.09 -0.82,0.17 -0.1,0.28 0.13,0.6299999 0.51,0.8099999 0.38,0.17 0.74,0.09 0.82,-0.18 z m -0.22,-1.7299999 c 0.36,0.17 0.57,0.5 0.5,0.75 -0.08,0.25 -0.42,0.32 -0.79,0.15 -0.36,-0.18 -0.58,-0.5 -0.5,-0.76 0.1,-0.25 0.43,-0.31 0.79,-0.14 z m 0.7,-0.18 c 0.06,-0.21 -0.14,-0.49 -0.45,-0.64 -0.3,-0.15 -0.6,-0.1 -0.68,0.1 -0.07,0.22 0.12,0.5 0.45,0.66 0.31,0.15 0.61,0.1 0.68,-0.12 z m -0.15,-1.47 c 0.33,0.17 0.54,0.46 0.48,0.69 -0.07,0.22 -0.39,0.26 -0.73,0.1 -0.35,-0.17 -0.56,-0.47 -0.5,-0.7 0.1,-0.2 0.4,-0.25 0.75,-0.09 z m 2.85,-0.92 c 0.22,0.11 0.37,0.3 0.34,0.44 -0.03,0.13 -0.22,0.15 -0.45,0.04 -0.22,-0.12 -0.36,-0.31 -0.34,-0.45 0.04,-0.13 0.23,-0.15 0.45,-0.03 z m -1.07,-0.55 c 0.2,0.11 0.35,0.3 0.32,0.42 -0.04,0.13 -0.23,0.15 -0.45,0.04 -0.21,-0.11 -0.36,-0.3 -0.32,-0.43 0.04,-0.13 0.23,-0.14 0.45,-0.03 z m 0.5,1.7 c 0.03,-0.1 -0.07,-0.22 -0.2,-0.29 -0.15,-0.07 -0.27,-0.06 -0.3,0.03 -0.02,0.1 0.07,0.22 0.22,0.3 0.14,0.06 0.27,0.05 0.28,-0.04 z m 1.16,0.6 c 0.01,-0.1 -0.07,-0.2 -0.19,-0.27 -0.12,-0.06 -0.23,-0.05 -0.25,0.04 -0.01,0.08 0.07,0.19 0.2,0.26 0.12,0.06 0.22,0.05 0.24,-0.04 z m 1.09,0.56 c 0.01,-0.1 -0.08,-0.2 -0.2,-0.26 -0.12,-0.06 -0.22,-0.06 -0.24,0.03 -0.01,0.09 0.07,0.2 0.2,0.26 0.12,0.07 0.22,0.06 0.24,-0.03 z m 1.1,0.58 c 0,-0.1 -0.1,-0.23 -0.23,-0.3 -0.14,-0.07 -0.25,-0.06 -0.26,0.04 -0.01,0.1 0.09,0.22 0.22,0.3 0.14,0.07 0.25,0.05 0.26,-0.04 z m -3.56,-0.95 c 0.02,-0.09 -0.06,-0.2 -0.2,-0.27 -0.12,-0.07 -0.24,-0.05 -0.27,0.04 -0.01,0.1 0.07,0.2 0.2,0.27 0.13,0.07 0.25,0.05 0.27,-0.04 z m 3.49,1.8 c 0,-0.1 -0.09,-0.21 -0.21,-0.28 -0.13,-0.07 -0.23,-0.05 -0.25,0.04 0,0.1 0.08,0.22 0.21,0.28 0.13,0.07 0.23,0.06 0.25,-0.04 z m -3.68,-0.98 c 0.02,-0.1 -0.06,-0.22 -0.2,-0.29 -0.13,-0.06 -0.25,-0.04 -0.28,0.05 -0.02,0.1 0.07,0.22 0.2,0.29 0.14,0.06 0.26,0.04 0.28,-0.05 z m 3.58,1.8299999 c 0.01,-0.1 -0.08,-0.22 -0.21,-0.3 -0.13,-0.05 -0.23,-0.04 -0.25,0.06 -0.01,0.1 0.08,0.23 0.21,0.3 0.13,0.06 0.24,0.04 0.25,-0.06 z m -3.78,-0.9599999 c 0.02,-0.1 -0.07,-0.23 -0.2,-0.3 -0.15,-0.06 -0.27,-0.04 -0.3,0.06 -0.02,0.1 0.07,0.23 0.2,0.3 0.14,0.07 0.27,0.04 0.3,-0.06 z m 3.68,1.8799999 c 0.01,-0.11 -0.08,-0.24 -0.22,-0.31 -0.13,-0.07 -0.24,-0.04 -0.25,0.06 -0.01,0.1 0.08,0.24 0.21,0.31 0.13,0.07 0.25,0.04 0.26,-0.06 z m -4.2,-0.9 c 0.16,0.07 0.3,0.04 0.34,-0.08 0.02,-0.12 -0.08,-0.27 -0.24,-0.35 -0.16,-0.07 -0.3,-0.04 -0.33,0.07 -0.03,0.12 0.07,0.27 0.23,0.35 z m 1.64,0.56 c 0.01,-0.1 -0.08,-0.24 -0.22,-0.31 -0.13,-0.07 -0.26,-0.04 -0.28,0.07 -0.02,0.1 0.07,0.24 0.2,0.3 0.15,0.08 0.27,0.05 0.3,-0.06 z m 1.21,0.62 c 0.01,-0.11 -0.08,-0.25 -0.21,-0.32 -0.14,-0.06 -0.26,-0.04 -0.28,0.07 -0.02,0.1 0.08,0.25 0.22,0.32 0.13,0.06 0.25,0.03 0.27,-0.07 z m 1.23,0.63 c 0,-0.12 -0.1,-0.28 -0.25,-0.36 -0.15,-0.08 -0.28,-0.05 -0.3,0.08 0,0.12 0.1,0.28 0.25,0.36 0.15,0.08 0.28,0.04 0.3,-0.08 z m 4.72,-4.9799999 c -0.12,-0.06 -0.2,-0.07 -0.2,0.01 0.01,0.09 0.1,0.19 0.22,0.25 0.11,0.07 0.2,0.07 0.2,-0.02 -0.02,-0.08 -0.1,-0.17 -0.22,-0.24 z m -0.88,0.04 c -0.13,-0.08 -0.23,-0.08 -0.23,0.02 0,0.09 0.11,0.2 0.24,0.28 0.13,0.07 0.23,0.07 0.23,-0.02 0,-0.1 -0.1,-0.21 -0.24,-0.28 z m -0.95,0.05 c -0.17,-0.1 -0.3,-0.09 -0.31,0.03 0,0.1 0.13,0.27 0.3,0.37 0.18,0.1 0.31,0.08 0.31,-0.03 0,-0.12 -0.13,-0.28 -0.3,-0.37 z m -0.36,0.66 c 0,-0.13 0.16,-0.14 0.35,-0.04 0.2,0.11 0.35,0.3 0.35,0.43 0,0.13 -0.15,0.15 -0.35,0.04 -0.2,-0.1 -0.35,-0.3 -0.35,-0.43 z m -0.15,2.2299999 c 0.02,-0.2 0.21,-0.23 0.47,-0.1 0.26,0.15 0.45,0.4 0.45,0.6 0,0.2 -0.2,0.25 -0.47,0.11 -0.25,-0.15 -0.45,-0.41 -0.45,-0.6 z m 1.07,0.58 c 0,-0.2 0.2,-0.24 0.47,-0.1 0.26,0.15 0.47,0.43 0.48,0.64 0,0.22 -0.2,0.26 -0.47,0.11 -0.27,-0.15 -0.48,-0.44 -0.48,-0.65 z m 1.56,0.54 c -0.24,-0.13 -0.42,-0.1 -0.42,0.1 0.01,0.19 0.2,0.45 0.45,0.6 0.23,0.13 0.41,0.08 0.4,-0.12 -0.01,-0.2 -0.2,-0.44 -0.43,-0.58 z m -1.48,0.39 c 0,-0.2 0.19,-0.25 0.44,-0.11 0.24,0.14 0.44,0.4 0.44,0.6 0,0.21 -0.18,0.26 -0.44,0.13 -0.25,-0.15 -0.44,-0.42 -0.44,-0.62 z m 2.5,0.24 c -0.22,-0.12 -0.37,-0.08 -0.37,0.1 0.02,0.18 0.2,0.41 0.4,0.54 0.22,0.13 0.37,0.08 0.36,-0.1 -0.01,-0.17 -0.19,-0.41 -0.4,-0.54 z m 1.93,0.36 c -0.19,-0.12 -0.32,-0.08 -0.3,0.09 0.02,0.16 0.18,0.39 0.37,0.51 0.2,0.12 0.33,0.08 0.3,-0.09 -0.01,-0.17 -0.18,-0.39 -0.37,-0.5 z m 1.02,0.7 c -0.14,-0.08 -0.24,-0.05 -0.22,0.08 0.01,0.13 0.14,0.3 0.29,0.4 0.15,0.1 0.24,0.07 0.23,-0.07 a 0.7,0.7 0 0 0 -0.3,-0.4 z m -2.26,-0.34 c 0,-0.17 0.14,-0.2 0.33,-0.09 0.2,0.12 0.37,0.35 0.39,0.53 0.01,0.17 -0.13,0.22 -0.33,0.1 -0.2,-0.13 -0.37,-0.36 -0.39,-0.54 z m -3.85,-1.72 c -0.27,-0.15 -0.5,-0.1 -0.5,0.12 0,0.22 0.2,0.51 0.48,0.67 0.28,0.15 0.5,0.1 0.5,-0.13 0,-0.22 -0.2,-0.5 -0.48,-0.66 z m 4.1,0.73 c -0.22,-0.13 -0.37,-0.1 -0.36,0.08 0.02,0.19 0.2,0.43 0.42,0.56 0.22,0.13 0.37,0.1 0.36,-0.09 -0.03,-0.18 -0.2,-0.42 -0.42,-0.55 z m -1.3,-0.47 c -0.01,-0.14 0.12,-0.17 0.3,-0.07 0.17,0.11 0.32,0.3 0.33,0.44 0.01,0.15 -0.12,0.18 -0.3,0.08 -0.17,-0.11 -0.32,-0.3 -0.33,-0.45 z m -0.63,1.03 c -0.2,-0.12 -0.36,-0.08 -0.36,0.1 0,0.18 0.17,0.41 0.38,0.54 0.22,0.12 0.37,0.08 0.36,-0.1 0,-0.18 -0.17,-0.42 -0.38,-0.54 z m -0.07,-1.66 c -0.16,-0.1 -0.28,-0.06 -0.27,0.06 0,0.13 0.13,0.3 0.3,0.4 0.16,0.08 0.28,0.06 0.27,-0.07 0,-0.13 -0.13,-0.3 -0.3,-0.39 z m 2.83,2.75 c -0.02,-0.14 0.08,-0.17 0.24,-0.07 0.14,0.1 0.28,0.27 0.3,0.41 0,0.14 -0.1,0.17 -0.25,0.08 -0.15,-0.1 -0.28,-0.28 -0.3,-0.42 z m -5.25,-4.6399999 c 0,-0.13 0.15,-0.15 0.33,-0.05 0.17,0.1 0.31,0.27 0.31,0.4 0,0.13 -0.14,0.15 -0.32,0.05 -0.18,-0.1 -0.32,-0.28 -0.32,-0.4 z m -0.65,-1.28 c -0.18,-0.1 -0.32,-0.08 -0.33,0.04 0,0.12 0.13,0.28 0.3,0.39 0.19,0.09 0.33,0.07 0.34,-0.05 0,-0.11 -0.14,-0.28 -0.31,-0.38 z m 1.75,2.6599999 c 0,-0.1 0.11,-0.13 0.26,-0.05 0.15,0.08 0.27,0.23 0.27,0.34 0,0.12 -0.11,0.14 -0.26,0.06 -0.15,-0.09 -0.27,-0.24 -0.27,-0.35 z m -0.79,-0.6199999 c -0.13,-0.07 -0.23,-0.05 -0.24,0.05 0,0.1 0.1,0.23 0.23,0.3 0.14,0.08 0.25,0.06 0.25,-0.04 0,-0.1 -0.1,-0.23 -0.24,-0.3 z m 2.94,3.5599999 c 0,-0.15 0.12,-0.18 0.29,-0.09 0.16,0.1 0.3,0.3 0.31,0.45 0,0.15 -0.11,0.19 -0.28,0.09 -0.17,-0.11 -0.3,-0.3 -0.32,-0.45 z m -1.9,-5.1199999 c -0.15,-0.08 -0.27,-0.07 -0.27,0.03 0,0.1 0.13,0.25 0.28,0.34 0.16,0.08 0.27,0.07 0.27,-0.03 0,-0.1 -0.13,-0.25 -0.28,-0.34 z m 5.9,5.8799999 c -0.02,-0.12 0.06,-0.14 0.19,-0.06 0.11,0.08 0.22,0.23 0.24,0.35 0.02,0.12 -0.06,0.15 -0.18,0.07 a 0.68,0.68 0 0 1 -0.25,-0.36 z m -5.2,-5.9299999 c -0.01,-0.08 0.07,-0.08 0.18,-0.02 0.1,0.06 0.19,0.16 0.2,0.24 0,0.08 -0.08,0.08 -0.19,0.02 -0.1,-0.06 -0.19,-0.16 -0.2,-0.24 z m 0.68,-0.59 c 0,-0.07 0.07,-0.07 0.18,-0.01 0.1,0.06 0.17,0.14 0.18,0.21 0,0.07 -0.07,0.07 -0.17,0.02 -0.1,-0.06 -0.18,-0.15 -0.19,-0.22 z m -1.4,1.32 c -0.12,-0.07 -0.22,-0.07 -0.22,0.02 0,0.1 0.1,0.22 0.23,0.29 0.13,0.07 0.22,0.06 0.22,-0.04 0,-0.09 -0.1,-0.2 -0.23,-0.27 z m -1.08,3.3199999 c -0.23,-0.13 -0.42,-0.08 -0.43,0.1 0,0.2 0.17,0.45 0.4,0.58 0.24,0.13 0.42,0.08 0.43,-0.12 0,-0.19 -0.18,-0.43 -0.4,-0.56 z m -0.02,0.92 c -0.27,-0.15 -0.48,-0.09 -0.49,0.14 -0.01,0.22 0.19,0.52 0.46,0.67 0.27,0.14 0.47,0.07 0.48,-0.15 0,-0.23 -0.2,-0.52 -0.45,-0.66 z m -0.53,2.34 c 0,-0.22 0.2,-0.3 0.44,-0.16 0.24,0.13 0.42,0.41 0.42,0.63 -0.02,0.23 -0.2,0.3 -0.45,0.17 -0.24,-0.14 -0.42,-0.42 -0.41,-0.64 z m 1.73,-1.59 c -0.2,-0.1 -0.36,-0.06 -0.37,0.12 0,0.18 0.16,0.41 0.36,0.53 0.21,0.11 0.36,0.06 0.36,-0.12 0,-0.18 -0.15,-0.4 -0.35,-0.53 z m -1.68,0.5 c 0.02,-0.21 0.2,-0.27 0.44,-0.15 0.23,0.14 0.4,0.4 0.4,0.6 -0.01,0.22 -0.2,0.29 -0.43,0.16 -0.24,-0.13 -0.41,-0.4 -0.4,-0.61 z m 2.84,1.23 c -0.23,-0.13 -0.4,-0.07 -0.4,0.15 0,0.22 0.19,0.5 0.42,0.63 0.23,0.14 0.4,0.07 0.39,-0.16 a 0.87,0.87 0 0 0 -0.41,-0.62 z m -1.59,-0.54 c 0.01,-0.2 0.17,-0.25 0.38,-0.13 0.2,0.12 0.36,0.36 0.36,0.55 0,0.2 -0.16,0.26 -0.37,0.14 -0.2,-0.12 -0.37,-0.37 -0.37,-0.56 z m 1.53,-0.52 c -0.19,-0.1 -0.32,-0.06 -0.32,0.1 0,0.17 0.15,0.39 0.33,0.5 0.18,0.1 0.31,0.05 0.3,-0.12 0,-0.16 -0.14,-0.37 -0.31,-0.48 z m 0.83,1.9 c 0,-0.2 0.14,-0.26 0.34,-0.13 0.19,0.12 0.35,0.38 0.37,0.58 0,0.2 -0.14,0.26 -0.34,0.14 a 0.85,0.85 0 0 1 -0.37,-0.59 z m -1.99,-3.54 c -0.17,-0.1 -0.31,-0.06 -0.31,0.09 0,0.15 0.14,0.35 0.31,0.45 0.18,0.1 0.32,0.06 0.32,-0.1 0,-0.15 -0.14,-0.34 -0.32,-0.44 z m 3.16,4.28 c 0,-0.18 0.12,-0.23 0.3,-0.12 a 0.8,0.8 0 0 1 0.33,0.54 c 0.01,0.2 -0.12,0.25 -0.3,0.13 a 0.83,0.83 0 0 1 -0.33,-0.55 z m -0.88,-1.89 c -0.13,-0.07 -0.22,-0.04 -0.21,0.08 0,0.13 0.1,0.28 0.23,0.36 0.13,0.08 0.22,0.04 0.22,-0.08 a 0.51,0.51 0 0 0 -0.24,-0.36 z m 2.1,2.72 c 0,-0.13 0.07,-0.16 0.18,-0.09 0.12,0.08 0.21,0.24 0.22,0.36 0,0.13 -0.07,0.17 -0.18,0.1 a 0.59,0.59 0 0 1 -0.22,-0.37 z m -0.84,0.2 c -0.14,-0.1 -0.25,-0.05 -0.24,0.11 0.01,0.16 0.13,0.35 0.27,0.45 0.14,0.1 0.24,0.05 0.24,-0.11 a 0.67,0.67 0 0 0 -0.27,-0.45 z m -1.38,-0.63 c 0,-0.14 0.1,-0.18 0.23,-0.1 0.13,0.08 0.23,0.26 0.24,0.4 0,0.14 -0.1,0.18 -0.22,0.1 a 0.58,0.58 0 0 1 -0.25,-0.4 z m -0.95,-0.8 c -0.13,-0.08 -0.22,-0.04 -0.22,0.09 0,0.12 0.1,0.27 0.22,0.35 0.13,0.07 0.21,0.03 0.21,-0.1 0,-0.12 -0.1,-0.27 -0.21,-0.34 z m -1.44,-0.63 c 0,-0.11 0.1,-0.15 0.23,-0.08 0.13,0.07 0.22,0.22 0.22,0.34 0,0.12 -0.1,0.16 -0.22,0.09 a 0.45,0.45 0 0 1 -0.23,-0.35 z m 4.86,2.86 c -0.12,-0.08 -0.2,-0.04 -0.19,0.1 0.01,0.13 0.11,0.3 0.22,0.38 0.11,0.08 0.2,0.04 0.18,-0.1 a 0.57,0.57 0 0 0 -0.21,-0.38 z m 0.98,0.96 c -0.01,-0.12 0.05,-0.16 0.16,-0.08 0.1,0.07 0.18,0.23 0.2,0.36 0,0.13 -0.06,0.17 -0.17,0.08 a 0.6,0.6 0 0 1 -0.2,-0.36 z m -9.98,-4.74 c 0.04,-0.26 0.28,-0.34 0.56,-0.2 0.28,0.15 0.48,0.47 0.46,0.72 -0.03,0.27 -0.27,0.36 -0.56,0.21 -0.29,-0.15 -0.49,-0.47 -0.46,-0.73 z m 1.3,0.67 c 0.02,-0.27 0.26,-0.36 0.55,-0.2 0.29,0.15 0.5,0.48 0.48,0.76 -0.02,0.27 -0.26,0.37 -0.55,0.22 -0.3,-0.17 -0.51,-0.5 -0.49,-0.78 z m 1.77,1.81 c -0.28,-0.15 -0.5,-0.05 -0.53,0.23 -0.01,0.29 0.2,0.64 0.48,0.81 0.29,0.16 0.51,0.05 0.53,-0.25 a 1,1 0 0 0 -0.48,-0.79 z m 0.75,2.37 c 0.02,-0.3 0.24,-0.42 0.53,-0.26 0.28,0.17 0.5,0.55 0.5,0.87 -0.01,0.32 -0.24,0.44 -0.53,0.27 a 1.1,1.1 0 0 1 -0.5,-0.88 z m 1.3,2.44 c 0,-0.3 0.2,-0.4 0.45,-0.25 0.24,0.16 0.43,0.5 0.43,0.8 0,0.31 -0.19,0.43 -0.44,0.27 a 1.07,1.07 0 0 1 -0.44,-0.82 z m -2.02,-6.1 c -0.26,-0.14 -0.47,-0.06 -0.49,0.19 0,0.25 0.18,0.56 0.44,0.7 0.27,0.15 0.47,0.07 0.48,-0.19 0,-0.26 -0.18,-0.55 -0.43,-0.7 z m 0.72,5.23 c 0.01,-0.28 0.2,-0.38 0.44,-0.24 0.24,0.14 0.41,0.46 0.41,0.75 -0.01,0.28 -0.2,0.38 -0.44,0.24 a 0.95,0.95 0 0 1 -0.41,-0.75 z m 1.76,2.26 c -0.23,-0.14 -0.4,-0.03 -0.4,0.25 0,0.3 0.17,0.64 0.4,0.8 0.22,0.14 0.4,0.03 0.4,-0.26 0,-0.3 -0.18,-0.64 -0.4,-0.79 z m -3.11,-4.59 c 0.02,-0.27 0.23,-0.37 0.5,-0.23 0.26,0.15 0.45,0.47 0.44,0.76 -0.02,0.28 -0.23,0.39 -0.5,0.24 a 0.92,0.92 0 0 1 -0.44,-0.77 z m -0.72,-2.28 c -0.26,-0.14 -0.48,-0.05 -0.5,0.2 -0.03,0.26 0.16,0.57 0.42,0.71 0.27,0.14 0.48,0.04 0.5,-0.22 0.02,-0.25 -0.17,-0.55 -0.42,-0.7 z m 2.58,1.43 c -0.25,-0.14 -0.45,-0.05 -0.46,0.2 0,0.28 0.19,0.6 0.44,0.75 0.25,0.14 0.45,0.05 0.45,-0.22 a 0.93,0.93 0 0 0 -0.43,-0.73 z m 1.91,8.47 c 0,-0.26 0.14,-0.36 0.32,-0.23 a 1,1 0 0 1 0.33,0.72 c 0,0.26 -0.13,0.36 -0.32,0.23 a 1.02,1.02 0 0 1 -0.33,-0.72 z m 0.52,-1.93 c -0.21,-0.14 -0.36,-0.04 -0.37,0.24 0.01,0.28 0.17,0.62 0.38,0.77 0.21,0.15 0.37,0.05 0.36,-0.24 a 1.1,1.1 0 0 0 -0.37,-0.77 z m -2.73,-7.61 c 0,-0.18 0.14,-0.24 0.32,-0.14 0.17,0.1 0.31,0.33 0.31,0.5 0,0.19 -0.14,0.25 -0.32,0.14 a 0.64,0.64 0 0 1 -0.31,-0.5 z m 1.57,3.37 c -0.2,-0.13 -0.36,-0.05 -0.37,0.2 0,0.23 0.16,0.52 0.37,0.65 0.2,0.13 0.36,0.04 0.36,-0.2 a 0.85,0.85 0 0 0 -0.36,-0.65 z m -0.4,5.02 c 0,-0.22 0.13,-0.3 0.3,-0.2 0.15,0.1 0.28,0.36 0.28,0.58 0,0.22 -0.13,0.3 -0.3,0.2 a 0.77,0.77 0 0 1 -0.28,-0.58 z m 2.08,2.74 c -0.15,-0.12 -0.26,-0.03 -0.26,0.2 0.01,0.25 0.13,0.55 0.28,0.67 0.15,0.13 0.25,0.05 0.25,-0.2 a 1.04,1.04 0 0 0 -0.27,-0.67 z m -3.4,-5.25 c 0,-0.22 0.15,-0.3 0.33,-0.2 0.17,0.11 0.3,0.36 0.3,0.58 0,0.22 -0.15,0.3 -0.33,0.2 a 0.72,0.72 0 0 1 -0.3,-0.58 z m -0.98,-2.49 c -0.16,-0.09 -0.3,-0.02 -0.3,0.16 0,0.18 0.1,0.38 0.26,0.48 0.16,0.08 0.3,0.02 0.3,-0.16 a 0.55,0.55 0 0 0 -0.26,-0.48 z m -1.62,-2.08 c 0.02,-0.16 0.15,-0.22 0.3,-0.14 a 0.5,0.5 0 0 1 0.26,0.44 c -0.01,0.16 -0.14,0.22 -0.3,0.14 a 0.5,0.5 0 0 1 -0.26,-0.44 z m -0.9,-2.2 c -0.16,-0.08 -0.3,-0.03 -0.32,0.12 0,0.15 0.1,0.32 0.25,0.41 0.16,0.08 0.3,0.02 0.31,-0.13 0.01,-0.14 -0.1,-0.32 -0.25,-0.4 z m -4.03,-2.72 c -0.23,-0.11 -0.37,-0.35 -0.33,-0.55 0.05,-0.19 0.26,-0.24 0.5,-0.14 0.22,0.12 0.36,0.35 0.33,0.54 -0.05,0.2 -0.26,0.26 -0.5,0.15 z m 0.93,0.09 c -0.05,0.26 0.15,0.59 0.46,0.75 0.31,0.14 0.59,0.05 0.64,-0.21 0.04,-0.27 -0.16,-0.59 -0.46,-0.74 -0.3,-0.15 -0.59,-0.06 -0.64,0.2 z m -0.22,1.27 c -0.06,0.27 0.14,0.6 0.44,0.75 0.3,0.14 0.58,0.04 0.63,-0.23 0.04,-0.27 -0.15,-0.6 -0.45,-0.74 -0.3,-0.14 -0.57,-0.05 -0.62,0.22 z m 0.19,2.07 c -0.3,-0.14 -0.48,-0.47 -0.43,-0.75 0.06,-0.27 0.32,-0.37 0.62,-0.24 0.28,0.15 0.47,0.47 0.42,0.74 -0.05,0.28 -0.31,0.39 -0.61,0.25 z m -0.7,0.7 c -0.05,0.29 0.13,0.61 0.42,0.75 0.29,0.13 0.55,0.02 0.6,-0.26 0.05,-0.29 -0.13,-0.6 -0.41,-0.74 -0.28,-0.13 -0.54,-0.02 -0.6,0.26 z m 0.13,2.2 a 0.64,0.64 0 0 1 -0.36,-0.66 c 0.06,-0.26 0.3,-0.36 0.54,-0.25 0.25,0.12 0.4,0.4 0.35,0.66 -0.05,0.25 -0.28,0.37 -0.53,0.25 z m -0.7,1.1 c -0.04,0.27 0.1,0.55 0.34,0.66 0.25,0.11 0.47,-0.01 0.52,-0.27 a 0.61,0.61 0 0 0 -0.33,-0.66 c -0.24,-0.1 -0.46,0.01 -0.52,0.27 z m -0.05,2.57 a 0.55,0.55 0 0 1 -0.3,-0.62 c 0.07,-0.24 0.27,-0.36 0.48,-0.27 0.21,0.1 0.34,0.36 0.3,0.6 -0.06,0.25 -0.26,0.38 -0.48,0.29 z m -0.63,1.36 c -0.05,0.23 0.05,0.46 0.24,0.54 0.18,0.07 0.36,-0.05 0.41,-0.27 0.05,-0.23 -0.05,-0.46 -0.24,-0.54 -0.18,-0.07 -0.36,0.04 -0.41,0.27 z m 3.83,-9.98 c 0.23,0.11 0.42,0.04 0.45,-0.15 0.02,-0.2 -0.13,-0.44 -0.35,-0.56 -0.22,-0.1 -0.41,-0.04 -0.45,0.15 -0.03,0.2 0.12,0.44 0.35,0.56 z m 0.24,1.1 c -0.03,0.21 -0.22,0.28 -0.43,0.17 -0.22,-0.1 -0.36,-0.35 -0.33,-0.54 0.03,-0.2 0.22,-0.27 0.43,-0.16 0.22,0.1 0.36,0.34 0.33,0.54 z m -0.73,1.48 c 0.21,0.1 0.4,0.03 0.43,-0.18 0.03,-0.2 -0.11,-0.44 -0.32,-0.55 -0.21,-0.1 -0.4,-0.02 -0.43,0.18 -0.04,0.2 0.1,0.44 0.32,0.55 z m 0.13,1.24 c -0.03,0.2 -0.2,0.28 -0.4,0.18 -0.2,-0.1 -0.33,-0.32 -0.3,-0.52 0.03,-0.2 0.2,-0.28 0.4,-0.19 0.2,0.1 0.33,0.33 0.3,0.53 z m -0.74,1.6 c 0.19,0.1 0.36,0.01 0.39,-0.18 a 0.51,0.51 0 0 0 -0.27,-0.51 c -0.19,-0.09 -0.36,0 -0.4,0.19 a 0.5,0.5 0 0 0 0.28,0.5 z m -0.02,1.5 c -0.04,0.2 -0.19,0.28 -0.37,0.2 a 0.48,0.48 0 0 1 -0.25,-0.5 c 0.04,-0.18 0.2,-0.26 0.37,-0.18 0.17,0.08 0.28,0.29 0.25,0.48 z m -2.22,-7.59 c -0.04,0.2 0.1,0.43 0.32,0.53 0.22,0.1 0.42,0.04 0.47,-0.16 0.04,-0.19 -0.1,-0.42 -0.31,-0.53 -0.23,-0.1 -0.43,-0.03 -0.48,0.16 z m 0.08,1.85 c -0.22,-0.1 -0.35,-0.34 -0.31,-0.54 0.05,-0.2 0.26,-0.27 0.48,-0.17 0.2,0.1 0.34,0.33 0.3,0.54 -0.05,0.2 -0.25,0.27 -0.47,0.17 z m -0.5,0.9 c -0.04,0.2 0.07,0.43 0.28,0.53 0.21,0.1 0.4,0.01 0.45,-0.19 0.04,-0.2 -0.08,-0.42 -0.28,-0.51 -0.2,-0.1 -0.4,-0.01 -0.45,0.18 z m 0,2.08 a 0.46,0.46 0 0 1 -0.26,-0.5 c 0.05,-0.2 0.23,-0.27 0.42,-0.19 0.2,0.1 0.3,0.3 0.26,0.5 -0.05,0.19 -0.23,0.27 -0.42,0.2 z m -0.53,1.28 c -0.05,0.2 0.05,0.4 0.23,0.49 0.18,0.07 0.36,-0.01 0.4,-0.2 a 0.44,0.44 0 0 0 -0.23,-0.48 c -0.18,-0.08 -0.36,0 -0.4,0.2 z m 0.36,-17.2899999 c 0.14,0.07 0.23,0.18 0.21,0.27 -0.03,0.08 -0.15,0.08 -0.3,0 -0.14,-0.07 -0.23,-0.17 -0.2,-0.26 0.02,-0.08 0.15,-0.08 0.3,0 z m 0.09,0.86 c 0.03,-0.11 -0.1,-0.27 -0.28,-0.37 -0.2,-0.09 -0.36,-0.08 -0.4,0.02 -0.03,0.11 0.09,0.27 0.28,0.37 0.2,0.1 0.37,0.09 0.4,-0.02 z m -0.53,0.24 c 0.21,0.11 0.34,0.29 0.3,0.41 -0.04,0.13 -0.24,0.14 -0.47,0.03 -0.21,-0.1 -0.35,-0.28 -0.3,-0.4 0.05,-0.13 0.25,-0.14 0.47,-0.03 z m -0.09,1.88 c 0.06,-0.18 -0.12,-0.42 -0.4,-0.56 -0.29,-0.13 -0.56,-0.1 -0.63,0.07 -0.06,0.18 0.1,0.42 0.4,0.56 0.3,0.14 0.57,0.1 0.63,-0.07 z m -0.28,0.76 c 0.06,-0.2 -0.12,-0.46 -0.43,-0.6 -0.31,-0.15 -0.61,-0.11 -0.7,0.08 -0.06,0.2 0.12,0.46 0.44,0.61 0.32,0.15 0.61,0.1 0.69,-0.09 z m -2.12,5.8599999 c 0.08,-0.27 -0.1,-0.57 -0.4199999,-0.72 -0.33,-0.13 -0.65,-0.05 -0.76,0.2 -0.1,0.27 0.08,0.58 0.42,0.73 0.33,0.14 0.6499999,0.05 0.7599999,-0.21 z m 1.47,-1.24 c 0.32,0.15 0.5,0.45 0.43,0.7 -0.08,0.26 -0.39,0.35 -0.72,0.2 -0.33,-0.15 -0.51,-0.46 -0.43,-0.72 0.09,-0.25 0.4,-0.32 0.72,-0.18 z m -0.11,-4.3799999 c 0.26,0.12 0.41,0.34 0.35,0.51 -0.06,0.17 -0.3,0.21 -0.57,0.1 -0.27,-0.13 -0.42,-0.36 -0.36,-0.53 0.07,-0.16 0.32,-0.2 0.58,-0.08 z m 0.1,1.42 c 0.07,-0.2 -0.1,-0.46 -0.4,-0.6 -0.3,-0.13 -0.58,-0.09 -0.67,0.1 -0.07,0.21 0.1,0.48 0.4,0.62 0.31,0.14 0.6,0.08 0.68,-0.12 z m -1.48,2.3399999 c 0.29,0.14 0.45,0.4 0.38,0.63 -0.08,0.23 -0.38,0.3 -0.68,0.18 -0.2999999,-0.14 -0.4599999,-0.41 -0.3799999,-0.64 0.09,-0.23 0.3799999,-0.3 0.6799999,-0.17 z m -0.4899999,3.11 c 0.09,-0.26 -0.08,-0.55 -0.38,-0.68 -0.3,-0.13 -0.61,-0.04 -0.71,0.21 -0.1,0.26 0.07,0.56 0.38,0.7 0.31,0.13 0.61,0.03 0.71,-0.23 z m 1.5899999,-1.25 c 0.28,0.13 0.44,0.41 0.38,0.65 -0.08,0.24 -0.36,0.33 -0.65,0.2 -0.3,-0.14 -0.46,-0.42 -0.39,-0.67 0.09,-0.23 0.37,-0.3 0.66,-0.18 z m 2.24,0.13 c 0.05,-0.25 -0.13,-0.55 -0.43,-0.69 -0.3,-0.14 -0.59,-0.06 -0.66,0.18 -0.07,0.25 0.11,0.55 0.42,0.7 0.3,0.14 0.6,0.06 0.67,-0.2 z m -2.98,-3.0299999 c 0.27,0.13 0.43,0.3799999 0.36,0.5799999 -0.07,0.2 -0.34,0.27 -0.63,0.15 -0.27,-0.13 -0.43,-0.39 -0.36,-0.5899999 0.09,-0.2 0.35,-0.25 0.63,-0.14 z m 0.7,-0.37 c 0.06,-0.19 -0.1,-0.42 -0.36,-0.54 -0.27,-0.12 -0.52,-0.07 -0.6,0.11 -0.07,0.2 0.09,0.43 0.36,0.55 0.27,0.12 0.52,0.07 0.6,-0.12 z m 1.15,-4.5 c 0.15,0.08 0.24,0.2 0.22,0.29 -0.04,0.09 -0.18,0.1 -0.34,0.03 -0.15,-0.07 -0.24,-0.2 -0.2,-0.29 0.03,-0.08 0.17,-0.1 0.32,-0.02 z M 9.2377041,15.097704 c 0.05,-0.17 -0.04,-0.35 -0.23,-0.43 -0.18,-0.08 -0.37,-0.02 -0.43,0.14 -0.07,0.17 0.03,0.36 0.22,0.44 0.19,0.08 0.38,0.01 0.44,-0.15 z m 1.7899999,-1.12 c 0.17,0.08 0.27,0.25 0.22,0.4 -0.05,0.15 -0.22,0.21 -0.4,0.14 -0.17,-0.09 -0.27,-0.26 -0.23,-0.42 0.06,-0.15 0.23,-0.2 0.4,-0.12 z m 2.09,-0.04 c 0.03,-0.14 -0.06,-0.3 -0.23,-0.38 -0.17,-0.08 -0.32,-0.03 -0.36,0.1 -0.04,0.15 0.05,0.32 0.22,0.4 0.17,0.07 0.33,0.02 0.37,-0.12 z M 3.9577041,6.5077041 c 0.05,-0.1 -0.02,-0.2 -0.18,-0.25 -0.16,-0.06 -0.34,-0.02 -0.4,0.07 -0.06,0.1 0.02,0.2 0.18,0.26 0.16,0.05 0.33,0.02 0.4,-0.08 z m 3.37,-0.13 c 0.16,0.07 0.24,0.2 0.2,0.29 -0.06,0.1 -0.23,0.13 -0.39,0.07 -0.17,-0.07 -0.25,-0.2 -0.2,-0.3 0.05,-0.1 0.22,-0.12 0.39,-0.06 z m 3.3799999,0.64 c 0.05,-0.13 -0.07,-0.3 -0.27,-0.39 -0.2,-0.09 -0.41,-0.06 -0.4699999,0.07 -0.05,0.13 0.06,0.3 0.2699999,0.4 0.21,0.09 0.41,0.06 0.47,-0.08 z m -1.6899999,0.27 c 0.06,-0.14 -0.06,-0.32 -0.27,-0.4 -0.22,-0.1 -0.44,-0.06 -0.51,0.08 -0.07,0.13 0.05,0.3 0.27,0.4 0.22,0.1 0.44,0.06 0.51,-0.08 z m 1.0899999,0.13 c 0.23,0.11 0.37,0.3 0.3,0.46 -0.06,0.16 -0.3,0.2 -0.5299999,0.1 -0.25,-0.11 -0.38,-0.31 -0.32,-0.47 0.08,-0.15 0.31,-0.2 0.5499999,-0.09 z M 8.2977041,13.287704 c 0.1,-0.25 -0.07,-0.54 -0.37,-0.67 -0.32,-0.13 -0.64,-0.04 -0.75,0.21 -0.1,0.26 0.05,0.55 0.37,0.69 0.32,0.12 0.64,0.02 0.75,-0.23 z m -2.15,0.86 c 0.08,-0.2 -0.03,-0.4 -0.26,-0.5 -0.23,-0.08 -0.48,0 -0.56,0.18 -0.1,0.19 0.02,0.4 0.25,0.5 0.24,0.08 0.48,0 0.57,-0.18 z m 1.24,-0.14 c 0.28,0.12 0.43,0.4 0.33,0.65 -0.1,0.25 -0.4,0.35 -0.7,0.23 -0.3,-0.12 -0.44,-0.4 -0.34,-0.66 0.11,-0.24 0.42,-0.33 0.7,-0.22 z m -1.72,1.48 c 0.1,-0.26 -0.03,-0.54 -0.32,-0.65 -0.3,-0.11 -0.62,0 -0.74,0.24 -0.12,0.26 0.02,0.54 0.31,0.66 0.3,0.11 0.63,0 0.75,-0.25 z m 3.11,-3.47 c 0.1,-0.23 -0.07,-0.5 -0.36,-0.63 -0.3,-0.12 -0.6,-0.04 -0.71,0.19 -0.1,0.23 0.06,0.51 0.36,0.64 0.31,0.12 0.62,0.04 0.71,-0.2 z m -0.46,-4.3099999 c 0.27,0.12 0.42,0.34 0.34,0.53 -0.08,0.18 -0.37,0.23 -0.65,0.12 -0.28,-0.12 -0.43,-0.35 -0.34,-0.53 0.09,-0.18 0.37,-0.23 0.65,-0.12 z m -4.54,8.4699999 c 0.09,-0.18 0,-0.38 -0.2,-0.46 a 0.45,0.45 0 0 0 -0.55,0.19 c -0.09,0.19 0,0.39 0.2,0.47 0.22,0.07 0.45,-0.02 0.55,-0.2 z m 5.92,-7.8199999 c 0.24,0.1 0.3799999,0.32 0.3099999,0.49 -0.07,0.16 -0.3099999,0.2 -0.5599999,0.1 -0.25,-0.1 -0.38,-0.32 -0.31,-0.48 0.07,-0.17 0.31,-0.22 0.56,-0.11 z m -2.83,-1.16 c 0.26,0.1 0.38,0.3 0.3,0.46 -0.08,0.17 -0.35,0.21 -0.61,0.12 -0.26,-0.1 -0.4,-0.3 -0.31,-0.47 0.1,-0.16 0.36,-0.2 0.62,-0.11 z m 1.99,3.1599999 c 0.2,0.1 0.32,0.28 0.26,0.44 -0.06,0.15 -0.28,0.2 -0.5,0.12 -0.2,-0.1 -0.32,-0.28 -0.26,-0.44 0.07,-0.16 0.29,-0.2 0.5,-0.12 z m -3.2,-3.2699999 c 0.08,-0.15 -0.04,-0.33 -0.28,-0.41 -0.24,-0.08 -0.5,-0.04 -0.58,0.1 -0.09,0.15 0.03,0.33 0.27,0.42 0.25,0.08 0.5,0.03 0.6,-0.11 z m -2.6,9.9799999 c 0.2,0.08 0.27,0.26 0.18,0.44 a 0.42,0.42 0 0 1 -0.5,0.2 c -0.2,-0.08 -0.27,-0.27 -0.18,-0.45 0.1,-0.17 0.31,-0.25 0.5,-0.19 z m -1.34,1.16 c 0.09,-0.15 0.02,-0.3 -0.15,-0.37 a 0.4,0.4 0 0 0 -0.46,0.17 c -0.09,0.16 -0.02,0.32 0.15,0.38 a 0.4,0.4 0 0 0 0.46,-0.18 z m 5.14,-2.88 c 0.2,0.1 0.32,0.3 0.24,0.5 -0.08,0.2 -0.31,0.29 -0.53,0.2 -0.22,-0.1 -0.33,-0.31 -0.25,-0.51 0.09,-0.2 0.32,-0.27 0.54,-0.19 z m -1.8,1.39 c 0.08,-0.2 -0.03,-0.41 -0.25,-0.5 -0.21,-0.09 -0.45,0 -0.53,0.19 -0.08,0.2 0.03,0.41 0.24,0.5 0.23,0.1 0.46,0 0.54,-0.2 z m -0.23,-9.2999999 c 0.2,0.07 0.3,0.21 0.23,0.34 -0.08,0.12 -0.28,0.16 -0.49,0.1 -0.19,-0.07 -0.29,-0.22 -0.22,-0.34 0.08,-0.12 0.3,-0.17 0.49,-0.1 z m 1.73,1 c 0.05,-0.12 -0.03,-0.25 -0.2,-0.32 -0.18,-0.06 -0.36,-0.02 -0.42,0.09 -0.06,0.11 0.03,0.25 0.2,0.31 0.18,0.07 0.36,0.03 0.42,-0.08 z m 1.3,0.29 c 0.14,0.06 0.22,0.19 0.18,0.3 -0.05,0.1 -0.2,0.13 -0.36,0.07 -0.16,-0.07 -0.23,-0.2 -0.19,-0.3 0.05,-0.1 0.2,-0.13 0.36,-0.07 z m 1.6,0.91 c 0.05,-0.1 -0.03,-0.23 -0.18,-0.3 -0.15,-0.06 -0.3,-0.03 -0.35,0.07 -0.04,0.11 0.04,0.24 0.2,0.3 0.14,0.07 0.3,0.03 0.34,-0.07 z m -6.2,-2.67 c 0.16,0.06 0.24,0.17 0.18,0.27 -0.07,0.1 -0.25,0.14 -0.42,0.1 -0.16,-0.06 -0.24,-0.18 -0.18,-0.28 0.07,-0.1 0.25,-0.13 0.41,-0.09 z m -1.32,-0.17 c 0.05,-0.1 -0.02,-0.2 -0.17,-0.23 -0.16,-0.04 -0.33,0 -0.4,0.09 -0.06,0.09 0,0.18 0.16,0.23 0.17,0.03 0.34,0 0.4,-0.09 z m 16.3199999,-5.18 c 0,-0.06 -0.06,-0.13 -0.17,-0.18 -0.1,-0.06 -0.18,-0.08 -0.19,-0.03 0,0.06 0.07,0.13 0.17,0.19 0.1,0.06 0.18,0.08 0.2,0.02 z"
     fill="#f0f3fa"
     id="path4" />
  <defs
     id="defs7">
    <linearGradient
       id="asouijlg5"
       x1="29.65"
       y1="29.129999"
       x2="43.220001"
       y2="13.18"
       gradientUnits="userSpaceOnUse"
       gradientTransform="translate(-13.062296,-13.062296)">
      <stop
         stop-color="#0064B0"
         id="stop4" />
      <stop
         offset="1"
         stop-color="#00ABEB"
         id="stop5" />
    </linearGradient>
    <linearGradient
       id="bsouijlg5"
       x1="35.23"
       y1="22.93"
       x2="12.93"
       y2="42.689999"
       gradientUnits="userSpaceOnUse"
       gradientTransform="translate(-13.062296,-13.062296)">
      <stop
         stop-color="#029948"
         id="stop6" />
      <stop
         offset="1"
         stop-color="#7FBF3F"
         id="stop7" />
    </linearGradient>
  </defs>
</svg>
