<!-- by TradingView --><svg xmlns="http://www.w3.org/2000/svg" width="56" height="56"><path fill="#F0F3FA" d="M0 0h56v56H0z"/><path d="M37.3 25.15c4.05 6.53 4.88 13.23 1.62 16.05-3.85 3.33-11.98-.05-18.14-7.54-5.25-6.37-7.38-13.67-5.53-17.76-2.85 4.12-.71 12.54 5.26 19.8 6.53 7.94 15.18 11.48 19.32 7.9 3.72-3.21 2.52-11.1-2.54-18.45z" fill="#F88E40"/><path d="M18.65 28.75l.03.05c-3.7-6.41-3.54-13.63.54-16.56 3.8-2.73 9.76-.8 14.13 4.26-4.25-4.16-9.63-5.54-13.2-2.97-1.01.72-1.8 1.69-2.34 2.84.17-.25.36-.47.57-.69 3.05-3.17 8.74-2.45 13.56 1.4-4.49-2.85-9.44-3.05-12.28-.1-3 3.12-2.71 8.78.33 13.78a19.5 19.5 0 01-1.34-2.01z" fill="#0637A6"/><ellipse rx="1.32" ry="2.37" transform="matrix(.77103 -.6368 .61338 .78978 35.22 23.9)" fill="#F88E40"/></svg>