<!-- by TradingView --><svg width="56" height="56" viewBox="0 0 56 56" xmlns="http://www.w3.org/2000/svg"><path fill="#F0F3FA" d="M0 0h56v56H0z"/><path d="m6 20.2 8.14 2.7-2.32-5.4 4.88 3.53-.31-3.24 2.4 2.58v-4.3l2.6 3.58.7-3.12 1.49 2.18.93-4.94L26 17.66 27 15.44l1.14 2.35L29.94 13l1.05 5 1.67-2.78.43 3.2 2.02-2.98v3.78l2.82-3.14-.35 3.88 2-1.25-.66 2.48 2.17-.98-.43 2.43 4.95-2.09-2.99 3.93 4.54-.76-3.15 2.73 2.5.5-2.02 1.2 3.51 1.6-3.87.39 3.49 2.8-4.21-.44 3.1 3.62-4.97-2.02 1.68 3.66-3.37-2.16v2.16l-1.03-1.23-.26 2.95-1.96-2.3-.63 2.75-1.38-1.85-1.15 2.88-1.17-2.21-1.08 3.32-1.24-3.45-2.37 4.13-.71-3.27-1.42 2.32-.21-1.87-1.55 1.37v-2.36l-2.54 2.86.12-4.04-3.78 5 .53-4.83L13.09 43l2.3-6.05-2.3 1.67 1.6-3.27-4.27 1.18 2.67-3.44-3.37.4 2.68-2.12-2.5-.66 1.9-1.21-3.46-1.18 3.73-.91-3.16-2.14h3.16L6 20.2Zm9.05 1.26 1.5 3.18-3.98-.68 2.07 2.22h-2.56l2.13 1.62-2.26.56 2.51.97-1.89.79 1.52.53-1.4 1.46h2.46l-1.78 2.06 2.66-.48-.88 2.46 1.83-1.12-.85 3.2 2.98-2.83v3.68l3.04-2.8v3.1l2.19-2.84.14 2.63 1.48-1.43.25 1.52 1.17-1.52.7 2.34 1.9-3.14 1.39 1.97.7-2.37 1.38 1.81.78-2.22 1.54 1.61.61-2.45 1.5 1.65-.12-2.28 1.25.83v-1.63l2.06 1.02-.66-2.11 2.7.76-1.77-2.2h2.3l-1.77-1.44 2.56-.6-2.35-1.23 1.57-.64-2.18-.64 1.8-1.54-2.86.25 1.78-2.62-3.02 1.17.5-2.35-1.93.87.42-2.14-1.76 1.35.12-2.75-2.24 2.3v-3.35l-1.82 2.45-.6-2.45-1.39 2.14-.86-3.26-1.67 3.26-1-2.3-1.06 2.3-1.1-2.4-1.03 2.71-1.47-1.7-.47 2.92-2.08-2.3-.2 3.12-2.04-1.64.14 2.23-2.58-1.6Z" fill="#D0252B"/><path fill-rule="evenodd" d="M25.53 20.75c-.42.02-.6.25-.65.36.05.04.3.1.96 0 .67-.1 1.03-.46 1.13-.64-.3.09-1.01.25-1.44.28Zm-1.82.4-1.25.95v5.42l.37-.06c2.14-.35 4.28-.43 5.12-.42l.2-4.73-.38.02c-2.08.17-2.75 1.75-2.85 2.81a3.18 3.18 0 0 0-.02.38h1.95v.35a55.19 55.19 0 0 0-3.14.28v-5Zm1.58 4h1.93v1.1h-.37c-.66 0-2.33.18-3.1.27l-.4.05v-4.66l-.52.38v4.78c1.89-.3 3.76-.4 4.76-.4l.17-3.96c-.99.1-1.59.53-1.95 1.04a3 3 0 0 0-.52 1.4Zm2.12-1.85c-.1.01-.24.04-.38.08-.47.15-1.05.47-1.23 1.05a1.25 1.25 0 0 0-.06.38l1.53.1.14-1.61Zm-.47 1.2.06-.7c-.15.05-.3.12-.42.21-.18.12-.32.27-.4.44l.76.05Zm-1.14-2.15c.13-.2.09-.46-.09-.57-.17-.1-.4-.02-.53.2-.12.2-.08.46.09.56.17.11.41.03.53-.19Zm-6.57 1.07c.12-.21.08-.47-.1-.57-.16-.1-.4-.02-.52.19-.13.2-.09.46.08.57.18.1.41.02.54-.2ZM17.8 28.3v-1.88l1.17-.69v1.34l.36-.15v-1.25l1.03-.66v1.7l.54-.18v-1.8L22 23.65v3.9l-3.23.88v.88c0 1.18-1.3 2.21-2 2.21s-1.98-.53-1.98-1.9c0-.68.3-1.2.62-1.54.2-.21.41-.36.56-.43a2.3 2.3 0 0 0-.22.63c-.05.2-.08.4-.08.51v.04c0 .3-.01 1.18 1.1 1.18.92 0 1.08-1.14 1.04-1.7Zm.37-1.66.43-.25v1.24l1.1-.46v-1.29l.29-.19v1.55l1.29-.43v-1.92l.34-.34v2.7l-3.23.89v1.17c0 .45-.25.9-.63 1.27-.18.18-.38.33-.56.42-.2.1-.35.14-.44.14-.28 0-.7-.1-1.03-.36a1.38 1.38 0 0 1-.58-1.16c0-.25.05-.48.14-.68 0 .18.02.46.15.72.1.2.24.39.47.52.23.14.5.2.85.2.3 0 .57-.09.78-.26.21-.16.35-.38.44-.6.18-.42.21-.9.2-1.23v-1.65Zm2.06-2.11c.12-.21.08-.47-.09-.57-.17-.1-.4-.02-.53.19-.12.2-.08.46.09.57.17.1.41.02.53-.2Zm-1.71-.05c.17.11.2.37.09.58-.13.2-.36.3-.54.19-.17-.1-.2-.37-.08-.58.12-.2.36-.3.53-.19Zm15.2-1.84c.17.1.21.36.1.57-.13.2-.37.3-.54.19-.17-.1-.21-.36-.09-.58.12-.2.36-.29.53-.18Zm-.83 1.42c.13-.21.09-.47-.08-.57-.18-.1-.41-.02-.54.19-.12.2-.08.46.1.57.16.1.4.02.52-.2Zm0 1.12h-1.05v.81c0 1.88-.68 2.51-1.22 2.51-.55 0-1.13-.42-1.13-1.12a4.42 4.42 0 0 1 .41-1.5c-.21.08-.4.2-.55.35-.5.45-.71 1.08-.76 1.41-.08.7.13 2.1 1.63 2.1s2.27-1.36 2.46-2.03c2.04.12 4.8 1.12 6.23 1.72.13.06.25.1.36.16l.62-5.08c-1.8-.37-2.95.78-3.4 1.76-.06.12-.1.24-.14.35l2.03.69-.07.4-2.11-.72-.38-.1.3-2.23-1.15.44-.38 1.46-.36-.08.28-1.38-1.08.08-.26 1.16h-.28v-1.16Zm.84.36-.26 1.18h-.95v-1.16h-.31V26a4.2 4.2 0 0 1-.46 2.16c-.3.48-.7.74-1.13.74a1.5 1.5 0 0 1-1.5-1.73c-.09.2-.14.4-.16.53-.03.3 0 .73.18 1.08.16.31.47.58 1.08.58.63 0 1.11-.28 1.46-.64.35-.38.56-.82.65-1.11l.08-.3.3.03c2.05.12 4.79 1.1 6.25 1.7l.52-4.2a2.45 2.45 0 0 0-1.78.5c-.4.3-.68.7-.86 1.06l1.96.66-.2 1.16-2.5-.85-.7-.2.27-1.92-.4.15-.42 1.62-1.06-.23.25-1.26-.31.02Zm5.12 1.27.24-1.45c-.14 0-.26 0-.38.02a1.46 1.46 0 0 0-1.2.97l1.34.46Zm-.3-.5.1-.53a1.1 1.1 0 0 0-.6.35l.5.18Zm-4.1-1.96c.13-.2.09-.47-.08-.57-.18-.1-.41-.02-.54.19-.12.2-.08.47.1.57.16.1.4.02.52-.19Zm3.77-.72c.17.1.21.36.1.57-.13.21-.37.3-.54.2-.17-.11-.21-.37-.09-.58.12-.2.36-.3.53-.19ZM18.91 31.2l-1.38 1.71-.13-.07-.1.1.88.77.13-.15c-.16-.1-.2-.24-.18-.3l.53-.7c.04 0 .14.04.3.2.14.17 0 .44-.1.56l.05.1.76-1.03-.12-.12c-.2.26-.36.3-.42.3l-.27-.23.59-.81c.08.06.32.24.56.5.23.27.05.8-.07 1.03l.6-.9-1.78-1.32c.14.18.16.32.15.36Zm17.36 3.34-.1.15.87-.6-.24-.03-.53-.86.76-.54.57.98-.09.14.86-.6-.24-.03-1.18-1.9.11-.21-.9.64h.3l.46.8-.76.53-.53-.87.12-.2-.91.63.3.01 1.13 1.96Zm-16.3-.1h-.35l1.9.98.27-.5c-.2.3-.57.19-.72.1l-.58-.42.47-.83.2.12c.29.16.2.46.12.6l.08.06.54-1.08-.13-.07c-.28.45-.61.33-.74.22l.5-.85c.17.04.56.17.75.36.2.18.08.66 0 .88l.47-.88-2.01-.9.15.3-.91 1.92Zm8.93-.34.14 2.21-.14.04v.14l1.15-.06v-.2c-.2.04-.3-.04-.34-.09l-.08-.89c.03-.02.13-.06.35-.05.22.02.29.32.3.46l.1.04-.13-1.28h-.17c.03.32-.06.47-.1.5l-.35.04-.12-1c.1-.03.4-.06.75-.04.35.03.57.54.63.79l-.17-1.08-2.16.3c.21.04.32.12.34.17Zm-6.76 1.72.26-1.1h.16c.01.37.21 1.1.9 1.1.14 0 .42-.03.42-.23 0-.09-.15-.2-.33-.32-.36-.26-.9-.65-.9-1.28a.84.84 0 0 1 .9-.77c.16.02.55.13.82.44l.1-.18h.08l-.15.92h-.1c-.05-.3-.26-.92-.76-.92-.62 0-.48.4-.45.43l.7.55c.22.14.64.5.64.77 0 .33-.15.73-1 .73-.67 0-.91-.39-.95-.58l-.34.44Zm11.47-.96.5 1-.02-.56c.15.12.58.24 1.09-.22.63-.58.48-.98.27-1.23-.17-.2-.72-.18-.97-.14l-.88.08c-.05 0-.4-.22.06-.64.37-.34.92-.02 1.16.17l.08-.07-.49-.8-.06.07.04.2c-.4-.05-.76.14-.9.24-.5.46-.32.98-.17 1.18.41.47 1.06.4 1.5.34.22-.02.4-.04.45.02.13.15-.06.36-.16.45-.52.47-1.14.07-1.38-.2l-.12.11Zm-8.9 1.48.15-.06.28-2.26-.23-.2 1.1.08-.22.08-.1 1.03.92.06.11-.92-.23-.2 1.1.07-.22.08-.2 2.26.17.17-1.04-.06.16-.06.13-1.13-.92-.06-.1 1.02.18.17-1.05-.07Zm6.27-.17-.21.17.77-.18-.28-.15.11-.61.66-.32.46.85-.16.23 1.39-.42-.32-.03-1.38-2.34-.59.46-.45 2.34Zm.96-1.25-.52.23.16-.9.36.67Z" fill="#3888C3"/></svg>