<!-- by TradingView --><svg width="56" height="56" viewBox="0 0 56 56" xmlns="http://www.w3.org/2000/svg"><path fill="#F0F3FA" d="M0 0h56v56H0z"/><path d="M44 16H12v24h7.16l2.15-4h-1.1s-1.1 1.98-1.7 3H13V17h30v22H23v1h21V16Zm-28 5h.7v6H16v-6Zm2.3 2h.7v.58c.3-.28.8-.58 1.5-.58 1.2 0 1.5.74 1.5 1.21V27h-.7v-2.72c-.03-.2-.37-.6-.97-.6-.54 0-1.07.38-1.33.62V27h-.7v-4ZM34 21h-.7v6h.7v-2.64c.26-.27.74-.64 1.22-.64.57 0 .75.44.78.67V27h.7v-2.68c0-.53-.17-1.32-1.32-1.32-.63 0-1.1.28-1.38.57V21Zm-11 5.66c.16.12.62.34 1.12.34.63 0 1.68-.3 1.68-1.15 0-.86-.87-1.14-1.34-1.2-.47-.07-.67-.34-.67-.56 0-.23.21-.55.85-.55.5 0 .7.2.74.3l.42-.4a1.59 1.59 0 0 0-1.16-.44c-.8 0-1.57.39-1.57 1.18 0 .7.84.93 1.26 1.04.05 0 .1.02.13.03.34.1.53.3.53.6s-.25.6-.8.6c-.46 0-.85-.2-.99-.3l-.2.51ZM26.5 23v.67h.5V27h.7v-4h-1.2Zm.7-1a.5.5 0 1 0 0-1 .5.5 0 0 0 0 1Zm5.22 1.7h-.7c.18.23.28.5.28.8 0 .83-.83 1.5-1.85 1.5-.17 0-.34-.02-.5-.06-.27.54 0 .72.94.72 1 0 1.49.57 1.49 1.07 0 .5-.28 1.27-1.96 1.27-1.7 0-2-.74-2-1.16 0-.34.56-.5.84-.53 0 1.09.73 1.1 1.27 1.1s1.08-.01 1.08-.57c0-.45-.4-.6-.59-.61h-.86c-.4 0-1.08-.2-1.08-.7 0-.35.28-.6.47-.72-.57-.25-.95-.75-.95-1.31 0-.8.78-1.46 1.77-1.5h2.35v.7Zm-2.24 1.7c.63 0 1.14-.42 1.14-.93 0-.5-.5-.92-1.14-.92-.63 0-1.14.41-1.14.92s.51.93 1.14.93ZM38.7 21l-.7.25V23h-.5v.7h.5v1.9c0 .47.13 1.4 1.18 1.4.84 0 1.22-.32 1.3-.48l-.37-.56c-.04.12-.25.36-.75.36s-.65-.48-.66-.73V23.7H40V23h-1.3v-2Z" fill="#005432"/><path opacity=".5" fill="#065535" d="M16 30h24v3H16z"/></svg>