<!-- by TradingView --><svg width="56" height="56" viewBox="0 0 56 56" xmlns="http://www.w3.org/2000/svg"><path fill="#175B96" d="M0 0h56v56H0z"/><path d="M43.27 32A3.22 3.22 0 0 1 40 28.74v-.25c0-1.8 1.17-3.49 3.09-3.49 1.9 0 2.91 1.56 2.91 3.33V29h-4.5c0 .88 1.04 1.6 1.87 1.6.64 0 1.3-.24 1.68-.76l.82.93c-.56.84-1.63 1.23-2.6 1.23ZM43 26.5c-.82 0-1.53.8-1.5 1.5h3c0-1-.65-1.5-1.5-1.5ZM23 25h-1.5v1.5H23V32h1.5v-5.5H26V25h-1.5v-2H23v2ZM33 32v-7h1.5v1c.46-.67 1.37-1 2.19-1C38.3 25 39 26.28 39 27.77V32h-1.5v-4.2c0-.84-.66-1.36-1.51-1.36-.53 0-1.13.24-1.41.69V32H33ZM30.28 32c-.08-.17-.14-.51-.18-.75a2.4 2.4 0 0 1-1.8.75c-1.17 0-2.3-.75-2.3-2.02 0-1.72 1.64-2.23 3.1-2.23h.9v-.4c0-.7-.53-1.05-1.16-1.05-.54 0-1 .25-1 .83h-1.7c0-1.46 1.52-2.13 2.79-2.13 1.45 0 2.8.78 2.8 2.36v2.9c0 .72.1 1.17.27 1.5V32h-1.72Zm-1.62-1.34a1.5 1.5 0 0 0 1.34-.71v-1.16h-.82c-.7 0-1.48.24-1.48 1.06 0 .55.46.8.96.8ZM18.13 30.61c.17 0 .33-.02.48-.07.16-.05.29-.13.4-.22.12-.09.21-.2.27-.33.07-.13.1-.27.09-.43H21a2 2 0 0 1-.22.98c-.15.3-.35.55-.61.77a3 3 0 0 1-.92.5c-.34.13-.7.19-1.1.19-.51 0-.97-.09-1.37-.26-.39-.18-.72-.42-.98-.73-.26-.3-.46-.67-.6-1.08-.13-.41-.2-.86-.2-1.33v-.19c0-.47.07-.92.2-1.33a2.84 2.84 0 0 1 1.58-1.81c.4-.18.85-.27 1.37-.27.41 0 .8.06 1.15.19a2.38 2.38 0 0 1 1.7 2.43h-1.63a1.14 1.14 0 0 0-.33-.86 1.31 1.31 0 0 0-.92-.36c-.27 0-.5.06-.68.17-.18.11-.32.26-.42.45-.1.19-.18.4-.23.64a4.4 4.4 0 0 0-.06.75v.19c0 .26.02.51.06.76.04.24.12.45.22.63.1.19.25.34.43.45.18.11.4.17.69.17Z" fill="#fff"/><path fill-rule="evenodd" d="M9 30.5a3.5 3.5 0 1 0 0-7 3.5 3.5 0 0 0 0 7ZM9 32a5 5 0 1 0 0-10 5 5 0 0 0 0 10ZM47.1 23.05l.64 1.6 1.26.32 1.26-.32.64-1.6-.65-1.3-1.25-.63-1.25.63-.65 1.3ZM47 21l-1 2 1 2.5 2 .5 2-.5 1-2.5-1-2-2-1-2 1Z" fill="#fff"/></svg>