<!-- by TradingView --><svg width="56" height="56" viewBox="0 0 56 56" xmlns="http://www.w3.org/2000/svg"><path fill="#F0F3FA" d="M0 0h56v56H0z"/><path d="M5.38 30.06c-.57.11-1.13.45-1.32 1.19-.04.2-.06.4-.06.65V34h.21c.55 0 .79-.56.79-1.05v-1c0-.27.05-.46.15-.59.12-.17.32-.36.6-.36H8v-1H6.1c-.27 0-.51.02-.72.06ZM44.16 30h-.34c-1.15 0-1.82.6-1.82 1.87V34h.21c.63 0 .79-.42.79-1.03v-1.04c0-.44.16-.93.7-.93h.58c.53 0 .73.49.73.93v1.04c0 .6.14 1.03.76 1.03H46v-2.13c0-1.27-.7-1.87-1.84-1.87ZM9 34h.17c.32 0 .59-.18.72-.46.07-.14.11-.36.11-.59V30H9M14 30.92V33h-1.25c-.5 0-.75-.24-.75-.73V30h-1v2.35c0 1.18.78 1.65 1.88 1.65H14v1h1v-5h-.22c-.57 0-.78.32-.78.92ZM52 30.87V30h-1v.87c0 .3-.54.53-1.11.53H48v-2.39c0-.45-.36-1.01-1-1.01v6h1v-1.79c.22.16.52.26.84.26h1.43c.53 0 .73.26.73.55V34h1v-.98c0-.43-.13-.8-.56-1.08.36-.27.56-.66.56-1.07ZM18.04 30c-.65 0-1.23.17-1.59.58a2 2 0 0 0-.45 1.34v.16c0 .65.2 1.04.45 1.34.36.41.91.58 1.57.58H21v-4h-2.96ZM20 33h-2.3c-.26 0-.47-.2-.59-.37-.1-.13-.11-.3-.11-.58v-.09c0-.28.02-.45.11-.6.12-.16.3-.36.57-.36H20M38.04 30c-.65 0-1.23.17-1.59.58a2 2 0 0 0-.45 1.34v.16c0 .65.2 1.04.45 1.34.36.41.91.58 1.57.58H41v-4h-2.96ZM40 33h-2.3c-.26 0-.47-.2-.59-.37-.1-.13-.11-.3-.11-.58v-.09c0-.28.02-.45.11-.6.12-.16.3-.36.57-.36H40M26 29.1v.9h-2.3c-1.25 0-1.7.53-1.7 1.82v.17c0 1.31.27 2.01 1.67 2.01h1.6c1.24 0 1.73-.72 1.73-2.01V28h-.22c-.66 0-.78.48-.78 1.1Zm0 2.85c0 .58-.06 1.05-.73 1.05h-1.5c-.67 0-.76-.46-.76-1.05v-.09c0-.52.18-.86.74-.86H26M31 29.1v.9h2.3c1.25 0 1.7.53 1.7 1.82v.17c0 1.31-.27 2.01-1.67 2.01h-1.6c-1.24 0-1.73-.72-1.73-2.01V28h.22c.66 0 .78.48.78 1.1Zm0 2.85c0 .58.06 1.05.73 1.05h1.5c.67 0 .76-.46.76-1.05v-.09c0-.52-.18-.86-.74-.86H31" fill="#008E7F"/><path d="M14 21c-.55 0-1 .34-1 .75 0 .42.45.75 1 .75.56 0 1-.33 1-.75 0-.41-.45-.75-1-.75ZM47 21c-.55 0-1 .22-1 .5s.44.5 1 .5c.55 0 1-.22 1-.5s-.45-.5-1-.5ZM23.24 27c-.36 0-.66.16-.74.37-.08-.21-.38-.37-.74-.37-.42 0-.76.23-.76.5 0 .28.33.5.76.5.36 0 .66-.15.74-.37.08.22.38.37.74.37.43 0 .76-.22.76-.5s-.33-.5-.76-.5ZM50 27c-.55 0-1 .22-1 .5s.44.5 1 .5c.57 0 1-.22 1-.5s-.43-.5-1-.5ZM40.45 22h-1.14l-.36.72a.47.47 0 0 0-.05.22c0 .08.02.15.07.22.11.15.3.21.48.24l-.32.6h1.15l.36-.78a.5.5 0 0 0 .05-.21.35.35 0 0 0-.08-.23c-.08-.11-.24-.19-.46-.22l.3-.56ZM33 21h-1v5h.04c.24 0 .44-.06.63-.2.26-.21.33-.54.33-.78" fill="#382E7F"/><path d="M42 21v2.89c0 1.17-1.22 1.11-2.12 1.11h-.58c-.78 0-2.3.17-2.3-.9V23h-1v1.05c0 .47.07 1.05.62 1.46.5.36 1.26.48 2.06.48h1.87c.92 0 1.6-.17 2.08-.65.38.4.94.66 1.87.66h5.77c.87 0 1.27-.26 1.46-.47.2-.21.27-.5.27-.8v-1.99h-.06c-.32 0-.21.06-.47.2a.88.88 0 0 0-.47.78v1c0 .07 0 .15-.06.2-.05.05-.15.08-.35.08H48v-2h-2v2h-1.8c-.34 0-.64-.08-.85-.22-.26-.18-.35-.42-.35-.72v-2.08c0-.24-.1-.57-.45-.78-.26-.14-.42-.2-.56-.2ZM31 21h-.07c-.3 0-.22.06-.47.22a1 1 0 0 0-.46.85v2.54c0 .08 0 .17-.04.22-.06.06-.16.17-.34.17H27v-1.02c0-.72-.25-.98-.94-.98H26v3.02c0 .54-.36.81-1.34 1.08l-.16.04.1.86.2-.03c1.35-.18 2.19-1.22 2.26-1.97h2.28c.83 0 1.21-.27 1.4-.5.18-.23.26-.54.26-.87M18.06 21H18v3.74c0 .3.07.58.26.79.19.2.58.47 1.44.47h2.6c.86 0 1.25-.26 1.44-.47.2-.21.26-.5.26-.8V23h-1v1.71c0 .08 0 .16-.06.2-.06.06-.15.09-.35.09h-3.18c-.2 0-.3-.03-.35-.08-.05-.05-.06-.13-.06-.2v-2.74c0-.25-.1-.57-.46-.78-.25-.14-.17-.2-.48-.2ZM11 25v-.15c0-.94 1.2-.85 3.2-.85H16v.64c0 .26-.18.36-.4.36H11Zm0-3h-1v2.84C10 25.94 8.83 26 8.13 26H7.2C6.4 26 5 26.12 5 25.05v-.26a.9.9 0 0 0-.44-.8c-.26-.15-.19-.2-.5-.2H4V25c0 .48.07 1.08.6 1.49.49.38 1.23.5 2.02.5h1.7c.9 0 1.7-.17 2.14-.65.17-.2.22-.26.26-.35h4.6c.84 0 1.24-.3 1.42-.52.2-.22.26-.5.26-.81V23h-3.33c-.5 0-.92.02-1.26.06-.48.06-1.09.2-1.41.41" fill="#382E7F"/></svg>