<!-- by TradingView --><svg width="56" height="56" viewBox="0 0 56 56" xmlns="http://www.w3.org/2000/svg"><path fill="#F0F3FA" d="M0 0h56v56H0z"/><path d="M13.08 30.05c0 1.1-.31 1.87-.94 2.33-.56.42-1.6.62-3.11.62-.57 0-1.36-.1-2.37-.3-.32-.07-.47-.23-.47-.48v-.67c0-.22.18-.31.55-.28.9.08 1.75.11 2.52.11.88 0 1.42-.06 1.63-.17.23-.12.34-.43.34-.92v-.53c0-.62-.15-1-.45-1.13-.14-.07-.55-.1-1.22-.1H8.7c-1 0-1.72-.23-2.16-.68-.37-.4-.55-1.08-.55-2.03 0-.45.04-.8.11-1.07.15-.5.43-.9.85-1.22.49-.35 1.32-.53 2.5-.53 1 0 1.82.06 2.44.19.32.06.47.22.47.47v.7c0 .18-.1.27-.33.28h-.22l-1.03-.01-1.27-.01c-.78 0-1.26.05-1.44.16-.19.1-.28.38-.28.84v.19c0 .33.01.57.04.7.02.13.06.23.12.3.16.16.6.24 1.31.24h.52c1.24 0 2.1.24 2.6.72.46.46.7 1.22.7 2.28ZM16 32.77c0 .15-.07.23-.2.23h-1.1c-.13 0-.2-.07-.2-.2v-6.54c0-.16.07-.26.2-.26h1.1c.13 0 .2.09.2.22v6.55Zm0-8.42c0 .15-.07.23-.2.23h-1.1c-.13 0-.2-.07-.2-.2v-1.15c0-.15.07-.23.2-.23h1.1c.13 0 .2.07.2.2v1.15ZM19.9 32.52c0 .14-.09.23-.28.28l-.42.11a2.7 2.7 0 0 1-.68.09c-.38 0-.67-.14-.88-.43a1.61 1.61 0 0 1-.26-.95v-8.37c0-.17.07-.25.22-.25h1.24c.14 0 .16.08.16.25v7.98c0 .27.19.43.45.49l.22.05c.16.03.24.12.24.27v.48ZM35.5 32.77c0 .15-.07.23-.2.23h-1.1c-.13 0-.2-.07-.2-.2v-6.78c0-.16.07-.24.2-.24h1.1c.13 0 .2.07.2.2v6.8Zm0-8.42c0 .15-.07.23-.2.23h-1.1c-.13 0-.2-.07-.2-.2v-1.15c0-.15.07-.23.2-.23h1.1c.13 0 .2.07.2.2v1.15ZM43 29.4c0 1.25-.2 2.12-.57 2.64-.48.64-1.28.96-2.41.96H40c-1.21 0-2.04-.3-2.48-.92-.35-.5-.52-1.34-.52-2.55 0-1.21.14-2.01.42-2.46.44-.71 1.3-1.07 2.58-1.07H40c1.29 0 2.14.34 2.57 1.01.28.45.42 1.24.42 2.4Zm-1.62.71V29c0-.71-.09-1.17-.26-1.36-.16-.19-.5-.28-1.05-.28h-.23c-.5 0-.83.1-.98.3-.15.18-.22.61-.22 1.28v1.2c0 .64.08 1.05.23 1.24.16.2.53.29 1.09.29h.11c.54 0 .9-.1 1.06-.28.16-.2.25-.61.25-1.27ZM50 32.76c0 .16-.07.24-.22.24h-1.23c-.14 0-.22-.08-.22-.24v-4.08c0-.49-.1-.83-.28-1.02-.19-.19-.52-.28-.99-.28h-.58c-.54 0-.81.08-.81.24v5.14c0 .16-.08.24-.22.24h-1.23c-.15 0-.22-.08-.22-.24v-6.09c0-.25.1-.4.32-.45.6-.14 1.4-.22 2.43-.22h.46c1.86 0 2.79.79 2.79 2.36v4.4Z" fill="#001F38"/><path d="M26.29 22.13 24.36 22l.3.42 1.9.13-.27-.42Z" fill="url(#a)"/><path d="m25.67 21.2-1.84-.12a3.88 3.88 0 0 1 .2-.47l1.3.08-.27-.4v-.01l-.79-.05.17-.23h-1.12c-.07 0-.11.05-.13.14-.02.08-.01.15.03.2l.8 1.16 1.93.12-.28-.42Z" fill="#D65F2D"/><path d="m26.39 24.9.14-.1-.25-.01.09.12.02-.01Z" fill="url(#b)"/><path d="m27.25 24.22.04-.04.18-.17.02-.03-1.85-.12.3.42 1.16.07.15-.13Z" fill="url(#c)"/><path d="m33.25 32.06-2.42-3.45 2.23-3.1c.06-.09.07-.16.05-.23-.03-.08-.08-.11-.16-.11h-1.36c-.14 0-.28.1-.41.32l-1.3 2.04-1.99-3-.13.16-.05.04-.14.14-.03.03-.16.15-.06.05-.12.1-.07.05-.13.1-.06.05-.24-.01 2.22 3.22-4.87 7.1c-.05.07-.07.14-.05.2.01.06.05.09.12.09h1.42c.17 0 .33-.1.47-.33l3.85-5.9 1.43 2.25c.14.22.3.33.47.33h1.42c.06 0 .1-.03.11-.1.02-.05 0-.12-.05-.19Z" fill="url(#d)"/><path d="m26.9 23.06-1.9-.13.3.42 1.89.12-.28-.41Z" fill="url(#e)"/><path d="M26.03 29.96c0 .16-.1.24-.3.24h-3.78v.37c0 .42.1.7.28.85.19.14.57.22 1.13.22.57 0 1.27-.03 2.08-.07.21-.01.32.06.32.22v.72c0 .12-.09.2-.26.24-.74.17-1.48.25-2.22.25-1.11 0-1.88-.22-2.3-.65-.48-.48-.72-1.43-.72-2.84 0-.93.08-1.62.24-2.08.14-.44.39-.77.76-1.01.4-.28 1.03-.42 1.9-.42.86 0 1.51.14 1.92.42.36.23.6.53.75.9.14.35.2.88.2 1.58v1.06Zm-1.66-1.76c0-.35-.08-.59-.23-.7-.15-.11-.48-.17-.98-.17-.53 0-.88.08-1.03.23-.12.12-.18.36-.18.74v.73h2.42v-.83Z" fill="#001F38"/><defs><linearGradient id="a" x1="23.22" y1="20.05" x2="34.32" y2="31.28" gradientUnits="userSpaceOnUse"><stop offset=".22" stop-color="#D65F2D"/><stop offset=".45" stop-color="#001F38"/></linearGradient><linearGradient id="b" x1="22.4" y1="20.86" x2="33.5" y2="32.09" gradientUnits="userSpaceOnUse"><stop offset=".22" stop-color="#D65F2D"/><stop offset=".45" stop-color="#001F38"/></linearGradient><linearGradient id="c" x1="22.9" y1="20.37" x2="34" y2="31.6" gradientUnits="userSpaceOnUse"><stop offset=".22" stop-color="#D65F2D"/><stop offset=".45" stop-color="#001F38"/></linearGradient><linearGradient id="d" x1="20.55" y1="22.69" x2="31.65" y2="33.92" gradientUnits="userSpaceOnUse"><stop offset=".22" stop-color="#D65F2D"/><stop offset=".45" stop-color="#001F38"/><stop offset=".68" stop-color="#001F38"/><stop offset=".84" stop-color="#85C8DE"/><stop offset=".91" stop-color="#85C8DE"/><stop offset=".98" stop-color="#D65F2D"/></linearGradient><linearGradient id="e" x1="23.06" y1="20.21" x2="34.16" y2="31.44" gradientUnits="userSpaceOnUse"><stop offset=".22" stop-color="#D65F2D"/><stop offset=".45" stop-color="#001F38"/></linearGradient></defs></svg>