<!-- by TradingView --><svg width="56" height="56" viewBox="0 0 56 56" xmlns="http://www.w3.org/2000/svg"><path fill="#4F008B" d="M0 0h56v56H0z"/><path d="M40.82 21c2.36 0 4.14.86 5.37 2.05a6.89 6.89 0 0 1 1.72 3.04l-3.65 1.22a3.92 3.92 0 0 0-.92-1.62 3.25 3.25 0 0 0-2.43-.92c-1.04 0-1.99.37-2.7 1.07A4.43 4.43 0 0 0 37 29c0 1.35.5 2.42 1.21 3.16.71.7 1.7 1.1 2.73 1.1a3.5 3.5 0 0 0 3.47-2.54l3.59 1.2A6.79 6.79 0 0 1 46.16 35 7.3 7.3 0 0 1 40.94 37c-2.2 0-4.2-.83-5.6-2.24A8.02 8.02 0 0 1 33 29a8.1 8.1 0 0 1 2.27-5.76A7.79 7.79 0 0 1 40.82 21ZM27 25v6.27c0 .71.15 1.24.45 1.56.37.34.85.5 1.52.5.94 0 1.67-.35 2.03-.63v3.37c-.48.43-1.6.93-3.18.93a4.9 4.9 0 0 1-3.64-1.34 4.83 4.83 0 0 1-1.18-3.4V25h4Zm4-4v4h-4v-4h4Zm-4-4v4h-4v-4h4ZM14.53 21c2.08 0 3.85.7 4.99 1.8.72.71 1.39 1.57 1.48 2.55l-3.7.77a2.26 2.26 0 0 0-.6-1.26 3.04 3.04 0 0 0-2.14-.76c-1.42 0-2.3.6-2.3 1.5 0 .67.57 1.16 1.58 1.35l2.43.46c1.48.27 2.65.85 3.47 1.65a4.1 4.1 0 0 1 1.26 3 4.4 4.4 0 0 1-1.36 3.22C18.51 36.36 16.77 37 14.66 37a7.4 7.4 0 0 1-5.3-1.96A4.3 4.3 0 0 1 8 32.34l3.6-.77c.03.56.25 1.05.63 1.41.53.56 1.39.9 2.43.9 1.45 0 2.33-.56 2.33-1.5 0-.77-.53-1.2-1.73-1.48l-2.4-.55a6.91 6.91 0 0 1-3.31-1.63A3.78 3.78 0 0 1 8.4 25.9c0-1.28.54-2.45 1.48-3.3a6.9 6.9 0 0 1 4.64-1.6Z" fill="#fff"/></svg>