<!-- by TradingView --><svg width="56" height="56" viewBox="0 0 56 56" xmlns="http://www.w3.org/2000/svg"><path fill="#F0F3FA" d="M0 0h56v56H0z"/><path d="M19 13.04c0-.01.04-.04.22-.04.22 0 .53.17 2.12 1.6.78.72 2.5 1.98 4.1 3.42a3.81 3.81 0 0 0 5.12 0c1.6-1.44 3.32-2.7 4.1-3.41 1.59-1.44 1.9-1.61 2.12-1.61.18 0 .22.03.22.04l-5.56 9.48-3.4 1.44V24l-.04-.02-.04.02v-.04l-3.4-1.44L19 13.04Z" fill="url(#a)"/><path d="M19.03 13c-.06.14-.08.6.31 1.36.33.65 4.44 8.95 7.32 14.8a1.48 1.48 0 0 0 2.68 0c2.88-5.85 6.99-14.15 7.32-14.8.39-.76.37-1.22.3-1.36l-6.65 8.87a2.87 2.87 0 0 1-4.62 0L19.03 13Z" fill="url(#b)"/><path d="M17.57 17c-.6 0-.97.3-1.07.46l3.93 17.73 6.3 9.51c.18-.39.27-.82.27-1.25V41.1c0-4.9-1.2-9.72-3.47-14.03-1.88-3.57-3.7-7.02-4.04-7.73-.71-1.47-1.16-2.34-1.92-2.34Z" fill="url(#c)"/><path d="m26.79 44.15-8.57-26.39a.97.97 0 0 0-1.84-.07l-3.95 9.72a5.8 5.8 0 0 0 1.42 6.44l11.93 10.98c.48.44 1.21-.05 1-.68Z" fill="url(#d)"/><path d="M38.43 17c.6 0 .97.3 1.07.46l-3.93 17.73-6.3 9.51c-.18-.39-.27-.82-.27-1.25V41.1c0-4.9 1.2-9.72 3.47-14.03 1.88-3.57 3.7-7.02 4.04-7.73.71-1.47 1.16-2.34 1.92-2.34Z" fill="url(#e)"/><path d="m29.21 44.15 8.57-26.39a.97.97 0 0 1 1.84-.07l3.95 9.72a5.8 5.8 0 0 1-1.42 6.44L30.22 44.83c-.48.44-1.21-.05-1-.68Z" fill="url(#f)"/><defs><linearGradient id="a" x1="28" y1="13" x2="28" y2="24" gradientUnits="userSpaceOnUse"><stop stop-color="#203476"/><stop offset="1" stop-color="#3143B2"/></linearGradient><linearGradient id="b" x1="28" y1="13" x2="28" y2="30" gradientUnits="userSpaceOnUse"><stop stop-color="#203071"/><stop offset="1" stop-color="#2E318E"/></linearGradient><linearGradient id="c" x1="21.75" y1="17" x2="21.75" y2="44.7" gradientUnits="userSpaceOnUse"><stop stop-color="#3C43F4"/><stop offset="1" stop-color="#5693F7"/></linearGradient><linearGradient id="d" x1="19.41" y1="17.07" x2="19.41" y2="45" gradientUnits="userSpaceOnUse"><stop stop-color="#599EF7"/><stop offset="1" stop-color="#4357F4"/></linearGradient><linearGradient id="e" x1="34.25" y1="17" x2="34.25" y2="44.7" gradientUnits="userSpaceOnUse"><stop stop-color="#3C43F4"/><stop offset="1" stop-color="#5693F7"/></linearGradient><linearGradient id="f" x1="36.59" y1="17.07" x2="36.59" y2="45" gradientUnits="userSpaceOnUse"><stop stop-color="#599EF7"/><stop offset="1" stop-color="#4357F4"/></linearGradient></defs></svg>