<svg width="42" height="42" viewBox="0 0 42 42" fill="none" xmlns="http://www.w3.org/2000/svg">
<rect width="42" height="42" rx="21" fill="#232323"/>
<rect x="0.5" y="0.5" width="41" height="41" rx="20.5" stroke="white" stroke-opacity="0.03"/>
<path fill-rule="evenodd" clip-rule="evenodd" d="M14.3359 15.9968V15.9974V16.0748C14.3747 16.9288 15.0685 17.747 16.2868 18.3561C17.5371 18.9812 19.2327 19.3324 21.0009 19.3324C22.769 19.3324 24.4647 18.9812 25.7149 18.3561C26.9692 17.729 27.6676 16.8804 27.6676 15.9991H27.6693V15.9974V15.9968C27.6686 14.1561 24.6841 12.6641 21.0026 12.6641C17.3211 12.6641 14.3366 14.1561 14.3359 15.9968ZM27.6693 19.0848C27.2907 19.3845 26.8768 19.6386 26.4603 19.8468C24.9255 20.6142 22.961 20.9991 21.0009 20.9991C19.0408 20.9991 17.0763 20.6142 15.5415 19.8468C15.1262 19.6392 14.7136 19.3861 14.3359 19.0875V21.0748C14.3747 21.9288 15.0685 22.747 16.2868 23.3561C17.5371 23.9812 19.2327 24.3324 21.0009 24.3324C22.769 24.3324 24.4647 23.9812 25.7149 23.3561C26.9692 22.729 27.6676 21.8804 27.6676 20.9991H27.6693V19.0848ZM27.6693 24.0848C27.2907 24.3845 26.8768 24.6386 26.4603 24.8468C24.9255 25.6142 22.961 25.9991 21.0009 25.9991C19.0408 25.9991 17.0763 25.6142 15.5415 24.8468C15.1262 24.6392 14.7136 24.3861 14.3359 24.0875V25.9968V25.9974C14.3359 27.8383 17.3207 29.3307 21.0026 29.3307C24.6845 29.3307 27.6693 27.8383 27.6693 25.9974V25.9968V24.0848Z" fill="#535353"/>
</svg>
